<svg width="40" height="40" viewBox="0 0 40 40" fill="none" xmlns="http://www.w3.org/2000/svg">
<circle cx="20" cy="20" r="5" fill="#32E000"/>
<path d="M12.666 3.56594C14.5493 2.44966 17.0328 3.09968 18.166 5.01614L18.3652 5.35012C19.3485 7.04999 20.6993 7.04994 21.6826 5.35012L21.8652 5.03274C22.9986 3.09945 25.4828 2.4502 27.3828 3.58352L30.249 5.23293C31.2657 5.81627 31.9988 6.76653 32.3154 7.91653C32.6154 9.06636 32.4659 10.2496 31.8828 11.2661C31.3995 12.1161 31.2655 12.8834 31.5488 13.3667C31.8322 13.85 32.5491 14.1333 33.5322 14.1333C35.9654 14.1333 37.949 16.1162 37.9492 18.5493V21.4829C37.9492 23.9163 35.9656 25.8999 33.5322 25.8999C32.549 25.9 31.8321 26.1832 31.5488 26.6665C31.2656 27.1499 31.3829 27.9162 31.8828 28.7661C32.4661 29.7828 32.6321 30.9834 32.3154 32.1167C32.0154 33.2665 31.2822 34.2161 30.249 34.7993L27.3652 36.4497C26.732 36.7996 26.0485 36.9829 25.3486 36.9829C24.9988 36.9829 24.6487 36.9334 24.2988 36.8501C23.2655 36.5668 22.3986 35.9162 21.8486 34.9995L21.6494 34.6665C20.6661 32.9665 19.3154 32.9665 18.332 34.6665L18.1494 34.9829C17.5994 35.9162 16.7325 36.5834 15.6992 36.8501C14.6493 37.1334 13.566 36.983 12.6494 36.4331L9.78223 34.7827C8.7658 34.1995 8.03252 33.2499 7.71582 32.1001C7.41582 30.9501 7.56608 29.7662 8.14941 28.7495C8.63254 27.8998 8.7656 27.1332 8.48242 26.6499C8.19909 26.1666 7.48236 25.8833 6.49902 25.8833C4.06569 25.8833 2.08203 23.8997 2.08203 21.4663V18.5327C2.08222 16.0996 4.06581 14.1167 6.49902 14.1167C7.48219 14.1167 8.19899 13.8333 8.48242 13.3501C8.76575 12.8668 8.64941 12.0995 8.14941 11.2495C7.5661 10.2329 7.41586 9.03322 7.71582 7.89992C8.01581 6.74995 8.74892 5.79967 9.78223 5.21633L12.666 3.56594ZM26.082 5.71633C25.3655 5.28328 24.4158 5.53308 23.9824 6.26614L23.7988 6.58352C22.8488 8.23324 21.4656 9.1665 19.9824 9.16653C18.4992 9.16653 17.116 8.23323 16.166 6.58352L15.9824 6.24953C15.5658 5.54973 14.6326 5.29992 13.916 5.71633L11.0322 7.38332C10.5991 7.63325 10.2662 8.04964 10.1328 8.54934C9.99951 9.04923 10.0656 9.56626 10.3154 9.99953C11.2654 11.6329 11.3827 13.3168 10.6494 14.6001C9.91606 15.8834 8.39897 16.6167 6.49902 16.6167C5.43247 16.6167 4.58222 17.4662 4.58203 18.5327V21.4663C4.58203 22.5163 5.43236 23.3833 6.49902 23.3833C8.39902 23.3833 9.91608 24.1166 10.6494 25.3999C11.3826 26.6832 11.2653 28.3663 10.3154 29.9995C10.0654 30.4329 9.99948 30.9497 10.1328 31.4497C10.2662 31.9497 10.5823 32.3501 11.0156 32.6167L13.8994 34.2661C14.2493 34.4827 14.6656 34.533 15.0488 34.4331C15.4488 34.3331 15.7824 34.0663 15.999 33.7163L16.1826 33.3999C17.1326 31.7666 18.5157 30.8159 19.999 30.8159C21.4824 30.8159 22.8654 31.7499 23.8154 33.3999L23.999 33.7163C24.199 34.0663 24.5326 34.3165 24.9326 34.4165C25.3325 34.5164 25.7322 34.4661 26.0654 34.2661L28.9492 32.6001C29.3825 32.3501 29.7153 31.9331 29.8486 31.4331C29.982 30.9331 29.916 30.4163 29.666 29.9829C28.7161 28.3497 28.5989 26.6666 29.332 25.3833C30.0654 24.1 31.5824 23.3667 33.4824 23.3667C34.5491 23.3667 35.3994 22.5164 35.3994 21.4497V18.5161C35.3993 17.4663 34.549 16.6002 33.4824 16.6001C31.5825 16.6001 30.0654 15.8667 29.332 14.5835C28.5987 13.3002 28.716 11.6163 29.666 9.98293C29.9159 9.54965 29.9819 9.03264 29.8486 8.53274C29.7153 8.03302 29.3989 7.63331 28.9658 7.36672L26.082 5.71633ZM19.999 13.7505C23.449 13.7505 26.249 16.5505 26.249 20.0005C26.2488 23.4503 23.4489 26.2505 19.999 26.2505C16.5492 26.2505 13.7492 23.4503 13.749 20.0005C13.749 16.5505 16.549 13.7505 19.999 13.7505ZM19.999 16.2505C17.9324 16.2505 16.249 17.9338 16.249 20.0005C16.2492 22.067 17.9325 23.7505 19.999 23.7505C22.0656 23.7505 23.7488 22.067 23.749 20.0005C23.749 17.9338 22.0657 16.2505 19.999 16.2505Z" fill="#14412A"/>
</svg>
