<svg width="40" height="40" viewBox="0 0 40 40" fill="none" xmlns="http://www.w3.org/2000/svg">
<path fill-rule="evenodd" clip-rule="evenodd" d="M5.27061 6.71856C4.90199 4.97444 6.23247 3.33337 8.01512 3.33337C9.3408 3.33337 10.4855 4.26142 10.7596 5.55846L13.0205 16.256C13.1772 16.997 13.109 17.7243 12.8674 18.3747H25.7469L28.4556 5.55846C28.7297 4.26143 29.8744 3.33337 31.2001 3.33337C32.9828 3.33337 34.3133 4.97444 33.9446 6.71856L31.7211 17.2391C31.2732 19.3584 29.4029 20.8747 27.2368 20.8747H26.7868C26.77 20.8751 26.7532 20.8751 26.7364 20.8747H9.27593H6.2513C5.10071 20.8747 4.16797 21.8075 4.16797 22.9581V28.9578C4.16797 30.1084 5.10071 31.0411 6.2513 31.0411H33.7587C34.9093 31.0411 35.842 30.1084 35.842 28.9578V22.8006C35.842 22.1742 35.3342 21.6664 34.7078 21.6664C34.0174 21.6664 33.4578 21.1067 33.4578 20.4164C33.4578 19.726 34.0174 19.1664 34.7078 19.1664C36.7149 19.1664 38.342 20.7935 38.342 22.8006V28.9578C38.342 31.4891 36.29 33.5411 33.7587 33.5411H33.0881V35.418C33.0881 36.1083 32.5284 36.668 31.8381 36.668C31.1477 36.668 30.5881 36.1083 30.5881 35.418V33.5411H9.24609V35.4172C9.24609 36.1076 8.68645 36.6672 7.99609 36.6672C7.30574 36.6672 6.74609 36.1076 6.74609 35.4172V33.5411H6.2513C3.71999 33.5411 1.66797 31.4891 1.66797 28.9578V22.9581C1.66797 20.4267 3.72 18.3747 6.2513 18.3747H7.73413L5.27061 6.71856ZM10.2085 17.992C10.5156 17.6882 10.6729 17.2383 10.5746 16.7729L8.31366 6.07541C8.28384 5.93433 8.15933 5.83337 8.01512 5.83337C7.82121 5.83337 7.67648 6.01189 7.71658 6.20161L10.2085 17.992ZM28.3734 18.0374C28.824 17.7439 29.1575 17.2788 29.2751 16.7222L31.4987 6.20161C31.5388 6.01189 31.394 5.83337 31.2001 5.83337C31.0559 5.83337 30.9314 5.93433 30.9016 6.07541L28.3734 18.0374ZM28.6895 26.7498C28.6895 26.0594 29.2491 25.4998 29.9395 25.4998H32.3237C33.014 25.4998 33.5737 26.0594 33.5737 26.7498C33.5737 27.4401 33.014 27.9998 32.3237 27.9998H29.9395C29.2491 27.9998 28.6895 27.4401 28.6895 26.7498ZM7.68685 25.4998C6.99649 25.4998 6.43685 26.0594 6.43685 26.7498C6.43685 27.4401 6.99649 27.9998 7.68685 27.9998H15.6343C16.3247 27.9998 16.8843 27.4401 16.8843 26.7498C16.8843 26.0594 16.3247 25.4998 15.6343 25.4998H7.68685Z" fill="#14412A"/>
</svg>
