<svg width="692" height="550" viewBox="0 0 692 550" fill="none" xmlns="http://www.w3.org/2000/svg">
<path d="M326.774 190.927C413.02 175.902 496.093 186.674 560.681 214.921C635.053 247.445 696.758 310.167 687.002 391.935C681.982 434.002 662.45 468.109 632.389 491.323C602.941 514.062 565.912 524.478 527.91 524.981C525.804 525.009 523.691 525.005 521.57 524.973V447.597C523.359 447.639 525.131 447.649 526.885 447.626C551.918 447.294 571.639 440.491 585.106 430.092C597.959 420.166 607.506 405.215 610.184 382.769C613.967 351.067 590.892 312.57 529.683 285.801C475.655 262.174 400.824 253.106 322.073 270.717C292.074 277.327 266.663 286.746 244.771 297.492C244.77 297.489 244.77 297.486 244.769 297.483C145.64 345.859 94.7819 431.694 78.9002 474.153C71.4157 494.162 49.1281 504.315 29.1192 496.831C9.11036 489.347 -1.04263 467.059 6.44137 447.05C28.6538 387.666 99.7024 269.521 242.155 214.241C242.156 214.233 242.156 214.226 242.157 214.218C268.359 204.172 297.845 196.024 326.779 190.914C326.777 190.918 326.776 190.923 326.774 190.927Z" fill="#155A02"/>
<path d="M321.999 270.734C320.953 270.968 319.906 271.206 318.859 271.449C323.192 304.118 336.581 336.443 359.918 363.228C409.573 420.218 472.007 446.438 521.57 447.596V524.972C447.423 523.848 364.341 486.07 301.59 414.049C271.585 379.612 252.939 339.107 244.771 297.492C266.646 286.754 292.033 277.342 321.999 270.734Z" fill="url(#paint0_linear_2147_8)"/>
<path d="M353.692 47.3444C396.965 25.11 449.492 18.5916 508.145 31.7701C528.989 36.4534 542.09 57.1472 537.407 77.9904C532.723 98.8336 512.029 111.934 491.186 107.251C447.978 97.5427 414.275 103.193 389.048 116.155C363.567 129.248 343.916 151.253 331.575 178.859C329.818 182.79 328.217 186.813 326.778 190.914C297.845 196.025 268.359 204.171 242.158 214.218C245.253 190.885 251.57 168.267 260.949 147.287C279.554 105.668 310.674 69.4479 353.692 47.3444Z" fill="url(#paint1_linear_2147_8)"/>
<defs>
<linearGradient id="paint0_linear_2147_8" x1="370.381" y1="333.815" x2="462.083" y2="456.084" gradientUnits="userSpaceOnUse">
<stop stop-color="#155A02" stop-opacity="0.8"/>
<stop offset="1" stop-color="#155A02"/>
</linearGradient>
<linearGradient id="paint1_linear_2147_8" x1="482.869" y1="84.3858" x2="281.125" y2="84.3858" gradientUnits="userSpaceOnUse">
<stop stop-color="#155A02" stop-opacity="0"/>
<stop offset="1" stop-color="#155A02" stop-opacity="0.8"/>
</linearGradient>
</defs>
</svg>
