<svg width="692" height="550" viewBox="0 0 692 550" fill="none" xmlns="http://www.w3.org/2000/svg">
<path d="M645.442 208.936C665.573 207.462 683.088 222.586 684.562 242.717C686.036 262.848 670.911 280.363 650.78 281.837C407.328 299.663 242.353 367.808 167.15 416.015C150.157 426.908 127.55 421.963 116.657 404.97C105.764 387.976 110.709 365.37 127.702 354.476C214.716 298.699 391.851 227.504 645.442 208.936Z" fill="#155A02"/>
<path d="M41.2332 130.379C121.76 124.513 209.849 130.848 268.023 144.856C282.708 148.392 296.515 152.657 308.258 157.829C318.955 162.541 332.447 169.905 341.676 181.909C346.749 188.507 351.341 197.587 352.091 208.81C352.855 220.24 349.39 230.292 344.415 238.161C335.562 252.163 320.917 261.037 308.307 267.078C230.403 304.399 192.932 367.776 181.685 397.995C174.644 416.912 153.6 426.539 134.683 419.498C115.766 412.457 106.139 391.413 113.18 372.496C127.957 332.795 169.147 263.444 249.672 215.625C200.174 203.923 120.559 197.891 46.5444 203.283C26.4127 204.749 8.90358 189.618 7.43707 169.487C5.97057 149.355 21.1016 131.846 41.2332 130.379Z" fill="url(#paint0_linear_2147_5)"/>
<defs>
<linearGradient id="paint0_linear_2147_5" x1="222.665" y1="341.159" x2="52.746" y2="218.937" gradientUnits="userSpaceOnUse">
<stop stop-color="#155A02"/>
<stop offset="0.5" stop-color="#155A02" stop-opacity="0.8"/>
<stop offset="1" stop-color="#155A02" stop-opacity="0"/>
</linearGradient>
</defs>
</svg>
