<svg width="692" height="550" viewBox="0 0 692 550" fill="none" xmlns="http://www.w3.org/2000/svg">
<g clip-path="url(#clip0_1_566)">
<path d="M138.36 28.943C139.939 12.1438 156.145 -1.93467 172.944 -0.355429C349.785 11.2628 504.688 98.317 587.007 170.87C594.025 176.585 597.922 184.878 598.246 193.42C543.743 167.248 472.198 139.5 387.37 119.766C387.873 119.86 388.377 119.954 388.88 120.047C327.882 92.7156 239.942 72.3714 189.187 68.5047C138.433 64.638 136.781 45.7422 138.36 28.943Z" fill="url(#paint0_linear_1_566)"/>
<path d="M51.7581 143.924C56.0196 98.0717 132.301 101.186 159.995 99.1186C192.669 96.6788 231.37 97.2039 274.406 100.935C308.322 103.875 348.242 112.505 387.37 119.766C472.198 139.501 543.743 167.248 598.246 193.421C598.448 198.781 597.245 204.239 594.52 209.221C587.452 222.144 572.17 228.185 558.176 223.586C466.662 195.351 369.593 173.734 295.669 164.235C295.08 164.085 294.492 163.936 293.905 163.788C213.292 143.581 105.665 146.491 51.408 149.736C51.4547 147.884 51.57 145.948 51.7581 143.924Z" fill="url(#paint1_linear_1_566)"/>
<path d="M51.4073 149.736C105.664 146.491 213.292 143.581 293.904 163.788C294.492 163.935 295.079 164.085 295.668 164.235C295.564 164.222 295.46 164.208 295.356 164.195C389.457 190.015 465.285 231.643 516.416 272.18C602.384 334.965 657.386 438.793 667.357 489.876C668.097 493.664 668.49 497.273 668.573 500.699C556.631 332.401 401.249 251.732 263.094 226.061C233.09 212.493 163.189 197.846 139.243 195.732C82.355 190.712 50.3963 189.848 51.4073 149.736Z" fill="url(#paint2_linear_1_566)"/>
<path d="M234.517 221.488C242.948 222.3 251.054 223.542 258.622 225.248C250.521 223.808 242.482 222.556 234.517 221.488Z" fill="url(#paint3_linear_1_566)"/>
<path d="M90.1017 248.589C115.506 228.297 181.447 216.376 234.526 221.489C242.491 222.558 250.531 223.81 258.633 225.25C260.603 225.694 262.536 226.169 264.43 226.676C263.994 226.471 263.549 226.266 263.095 226.061C401.249 251.732 556.632 332.402 668.573 500.699C669.608 543.466 622.133 557.556 592.555 532.624C560.608 505.694 468.667 431.817 379.027 391.591C286.429 350.977 231.323 333.894 152.363 366.814C90.1847 392.737 25.9105 301.153 90.1017 248.589Z" fill="#32E000"/>
</g>
<defs>
<linearGradient id="paint0_linear_1_566" x1="489.555" y1="127.534" x2="185.638" y2="39.6331" gradientUnits="userSpaceOnUse">
<stop stop-color="#32E000" stop-opacity="0.6"/>
<stop offset="1" stop-color="#32E000" stop-opacity="0"/>
</linearGradient>
<linearGradient id="paint1_linear_1_566" x1="323.448" y1="134.288" x2="120.132" y2="127.127" gradientUnits="userSpaceOnUse">
<stop stop-color="#32E000" stop-opacity="0.6"/>
<stop offset="1" stop-color="#32E000" stop-opacity="0.8"/>
</linearGradient>
<linearGradient id="paint2_linear_1_566" x1="231.199" y1="184.611" x2="452.819" y2="361.482" gradientUnits="userSpaceOnUse">
<stop stop-color="#32E000" stop-opacity="0.8"/>
<stop offset="1" stop-color="#32E000"/>
</linearGradient>
<linearGradient id="paint3_linear_1_566" x1="231.199" y1="184.611" x2="452.819" y2="361.482" gradientUnits="userSpaceOnUse">
<stop stop-color="#32E000" stop-opacity="0.8"/>
<stop offset="1" stop-color="#32E000"/>
</linearGradient>
<clipPath id="clip0_1_566">
<rect width="692" height="550" fill="white"/>
</clipPath>
</defs>
</svg>
