<svg width="692" height="550" viewBox="0 0 692 550" fill="none" xmlns="http://www.w3.org/2000/svg">
<path d="M469.56 33.4946C489.05 28.9058 508.571 40.9858 513.16 60.4762C517.748 79.9663 507.534 102.967 488.044 107.556C410.497 123.655 332.586 151.569 275.276 182.414C207.928 216.84 124.875 274.928 72.6627 367.18C68.9684 369.597 65.2511 372.06 61.5102 374.569C47.5124 384.442 27.4467 382.986 14.8884 371.337C2.33018 359.687 0.00703359 339.936 8.80304 325.237C45.438 264.019 164.075 105.421 469.56 33.4946Z" fill="url(#paint0_linear_1_574)"/>
<path d="M383.722 153.308C494.719 130.99 620.217 135.664 657.602 152.279C686.914 165.307 693.967 206.229 669.032 226.977C575.254 217.687 434.723 216.783 320.727 252.908C321.047 252.742 321.368 252.577 321.688 252.412C249.395 272.033 168.856 304.241 72.6631 367.181C124.876 274.929 207.928 216.84 275.276 182.414C275.018 182.553 274.76 182.691 274.502 182.83C318.773 167.122 342.457 161.606 383.722 153.308Z" fill="url(#paint1_linear_1_574)"/>
<path d="M320.729 252.908C434.725 216.783 575.255 217.688 669.032 226.978C662.165 232.692 652.873 236.878 640.95 238.527C585.735 246.165 506.35 269.323 490.092 275.657C490.109 275.654 490.126 275.651 490.143 275.648C401.287 304.704 248.931 381.786 145.475 493.609C143.949 494.655 142.419 495.711 140.886 496.776C120.039 511.929 94.7094 505.348 82.3987 491.423C70.0882 477.498 63.7814 453.109 82.2019 431.572C127.055 382.874 218.217 305.892 320.729 252.908Z" fill="url(#paint2_linear_1_574)"/>
<path d="M490.145 275.647C511.284 272.254 623.024 263.059 653.601 271.716C684.203 280.38 715.179 329.874 650.283 353.567C585.387 377.26 477.35 433.153 432.554 465.736C387.759 498.319 384.427 507.482 364.01 514.592C343.592 521.701 315.327 517.13 303.082 484.366C290.837 451.603 310.528 424.135 383.921 383.438C311.915 402.182 235.063 432.177 145.475 493.609C248.932 381.786 401.288 304.702 490.145 275.647Z" fill="#32E000"/>
<defs>
<linearGradient id="paint0_linear_1_574" x1="193.273" y1="179.73" x2="473.107" y2="68.1906" gradientUnits="userSpaceOnUse">
<stop stop-color="#32E000" stop-opacity="0.4"/>
<stop offset="1" stop-color="#32E000" stop-opacity="0"/>
</linearGradient>
<linearGradient id="paint1_linear_1_574" x1="378.454" y1="138.162" x2="116.007" y2="280.971" gradientUnits="userSpaceOnUse">
<stop stop-color="#32E000" stop-opacity="0.6"/>
<stop offset="1" stop-color="#32E000" stop-opacity="0.4"/>
</linearGradient>
<linearGradient id="paint2_linear_1_574" x1="146.935" y1="451.076" x2="621.17" y2="224.269" gradientUnits="userSpaceOnUse">
<stop stop-color="#32E000"/>
<stop offset="1" stop-color="#32E000" stop-opacity="0.6"/>
</linearGradient>
</defs>
</svg>
