<svg width="692" height="550" viewBox="0 0 692 550" fill="none" xmlns="http://www.w3.org/2000/svg">
<path d="M251.533 50.6679C245.978 72.6094 237.755 129.267 226.465 201.778C215.176 274.289 178.34 346.293 178.34 346.293C178.34 346.293 206.425 330.07 224.421 319.027C242.417 307.984 257.973 293.805 277.045 293.805C292.587 293.805 317.536 302.122 317.536 336.614C317.565 345.114 315.082 372.06 315.082 372.06C315.082 372.06 310.499 412.12 306.493 431.092C302.675 449.172 301.312 458.631 299.131 469.265C303.63 462.994 313.595 449.668 321.353 438.318C332.254 422.37 336.96 417.218 349.203 398.494C360.93 380.559 373.725 361.934 387.212 346.479C414.456 315.259 443.94 295.777 477.967 286.987C511.302 278.375 546.129 280.792 582.717 288.052C598.701 291.223 609.585 307.192 606.413 323.177C602.701 340.728 587.216 349.108 571.231 345.936C538.609 339.464 513.794 338.682 492.728 344.124C472.353 349.388 452.677 361.215 431.675 385.281C421.039 397.469 423.716 395.347 398.595 430.791C373.473 466.234 356.049 493.125 330.208 524.763C304.367 556.402 254.473 552.81 239.602 513.994C231.128 491.874 241.342 457.101 247.312 428.826C251.262 410.123 254.033 382.451 256.742 368.11C232.854 383.824 206.836 398.081 181.313 411.003C140.622 431.604 131.744 434.295 124.369 435.734C106.612 439.196 85.0361 421.852 85.0361 405.413C85.0361 388.366 88.4372 384.745 92.0986 378.624C95.7601 372.503 100.783 365.514 105.19 358.033C123.5 326.954 153.886 272.941 168.362 191.456C183.549 105.968 186.683 61.7284 192.93 37.0548C196.224 24.0422 203.725 15.4968 208.801 6.31012C228.294 8.39228 268.145 -14.9483 251.533 50.6679ZM117.683 375.576C117.251 375.632 117.192 375.673 117.599 375.594C117.626 375.589 117.654 375.582 117.683 375.576Z" fill="url(#paint0_linear_2147_22)"/>
<defs>
<linearGradient id="paint0_linear_2147_22" x1="214.193" y1="417.841" x2="249.64" y2="77.2415" gradientUnits="userSpaceOnUse">
<stop stop-color="#155A02"/>
<stop offset="1" stop-color="#155A02" stop-opacity="0"/>
</linearGradient>
</defs>
</svg>
