<svg width="692" height="550" viewBox="0 0 692 550" fill="none" xmlns="http://www.w3.org/2000/svg">
<path d="M370.048 6.9969C374.58 5.9815 386.443 3.67277 399.205 8.95198C406.711 12.0571 414.098 17.6598 419.17 26.1522C420.341 28.1126 421.294 30.0734 422.07 32.0018C423.978 36.0104 424.951 39.7844 425.438 42.7518C426.38 48.4822 425.918 53.5614 425.277 57.1307C363.599 86.0334 312.565 125.634 274.316 163.296C274.778 162.507 275.239 161.719 275.7 160.934C224.375 203.519 166.804 257.676 120.197 312.28C106.316 328.543 81.8799 330.473 65.6171 316.593C49.3546 302.712 47.4239 278.275 61.3046 262.013C121.478 191.514 197.432 122.954 258.398 75.4881C288.745 51.862 316.566 32.531 337.668 20.7088C347.46 15.2231 359.067 9.45695 370.048 6.9969Z" fill="url(#paint0_linear_2147_2)"/>
<path d="M425.278 57.133C424.877 59.3665 424.408 61.0088 424.166 61.8488C422.464 67.7601 419.633 73.3703 417.756 76.9348C413.482 85.047 406.937 95.7593 399.684 107.377C384.619 131.509 364.204 163.183 343.15 198.98C322.13 234.719 301.239 273.307 285.692 310.055C269.808 347.6 261.109 379.568 261.109 403.084C261.109 412.651 264.562 429.077 275.31 442.296C284.71 453.856 302.83 466.959 341.001 466.959C379.29 466.959 423.654 452.368 467.795 430.905C511.304 409.748 551.003 383.727 579.508 364.384C597.2 352.379 621.275 356.989 633.281 374.681C645.287 392.373 640.676 416.448 622.984 428.454C593.825 448.241 550.368 476.849 501.654 500.536C453.571 523.917 396.643 544.388 341.001 544.388C282.038 544.388 240.854 522.651 215.235 491.144C190.965 461.296 183.68 426.427 183.68 403.084C183.681 363.836 197.276 320.323 214.384 279.886C231.271 239.97 253.179 199.433 274.32 163.29C312.568 125.63 363.602 86.0346 425.278 57.133Z" fill="url(#paint1_linear_2147_2)"/>
<defs>
<linearGradient id="paint0_linear_2147_2" x1="83.6465" y1="281.905" x2="246.002" y2="154.094" gradientUnits="userSpaceOnUse">
<stop stop-color="#155A02" stop-opacity="0"/>
<stop offset="1" stop-color="#155A02" stop-opacity="0.8"/>
</linearGradient>
<linearGradient id="paint1_linear_2147_2" x1="394.087" y1="305.881" x2="556.979" y2="398.434" gradientUnits="userSpaceOnUse">
<stop stop-color="#155A02" stop-opacity="0.8"/>
<stop offset="1" stop-color="#155A02"/>
</linearGradient>
</defs>
</svg>
