<svg width="692" height="550" viewBox="0 0 692 550" fill="none" xmlns="http://www.w3.org/2000/svg">
<path d="M432.75 10.4385C447.814 0.910293 467.75 5.39772 477.278 20.4615C486.806 35.5253 482.319 55.461 467.255 64.9892L324.248 155.443L452.49 169.693C465.784 171.17 476.789 180.694 480.159 193.638C483.529 206.582 478.564 220.264 467.678 228.036L392.32 281.837L465.494 288.028C478.383 289.119 489.376 297.8 493.425 310.085C497.474 322.37 493.797 335.886 484.082 344.426L432.966 389.364L455.23 391.494C467.68 392.685 478.322 400.962 482.54 412.736C486.758 424.511 483.793 437.662 474.932 446.488L385.904 535.157C373.275 547.735 352.84 547.694 340.262 535.065C327.684 522.436 327.725 502.001 340.354 489.423L380.73 449.209L352.549 446.514C339.736 445.288 328.877 436.567 324.915 424.321C320.953 412.075 324.646 398.645 334.313 390.147L384.576 345.96L299.381 338.751C285.898 337.61 274.559 328.181 270.978 315.132C267.398 302.084 272.337 288.188 283.349 280.326L361.504 224.528L225.664 209.435C212.041 207.921 200.86 197.967 197.779 184.611C194.699 171.255 200.391 157.41 211.975 150.083L432.75 10.4385Z" fill="url(#paint0_linear_8_960)"/>
<defs>
<linearGradient id="paint0_linear_8_960" x1="426.183" y1="56.7683" x2="246.466" y2="356.627" gradientUnits="userSpaceOnUse">
<stop stop-color="white" stop-opacity="0"/>
<stop offset="1" stop-color="white"/>
</linearGradient>
</defs>
</svg>
