<svg width="692" height="550" viewBox="0 0 692 550" fill="none" xmlns="http://www.w3.org/2000/svg">
<path d="M375.216 19.8744C391.098 3.01323 417.642 2.21921 434.504 18.1007C451.365 33.9825 452.159 60.5259 436.277 77.3873C400.81 115.042 369.511 154.198 342.135 192.74C256.011 265.12 166.996 361.499 111.176 461.351C110.787 455.588 111.586 449.67 113.707 443.956C136.23 383.268 216.408 188.478 375.216 19.8744Z" fill="url(#paint0_linear_1_572)"/>
<path d="M431.474 125.432C418.301 134.162 404.695 143.751 390.821 154.107C404.947 143.475 418.51 133.943 431.474 125.432Z" fill="url(#paint1_linear_1_572)"/>
<path d="M524.493 76.6563C529.543 74.7978 534.77 73.9668 539.917 74.0835C503.465 79.9006 431.052 178.37 371.016 279.841C316.79 329.47 254.541 396.039 186.177 484.243C173.489 500.613 150.751 505.27 132.649 495.207C119.874 488.105 112.107 475.172 111.176 461.351C166.996 361.499 256.011 265.12 342.135 192.74C341.763 193.264 341.391 193.788 341.021 194.312C358.342 179.406 374.999 166.013 390.938 154.02C404.757 143.708 418.31 134.157 431.433 125.46C467.284 101.922 498.556 86.2013 524.493 76.6563Z" fill="url(#paint2_linear_1_572)"/>
<path d="M368.293 284.46C346.708 321.204 326.841 358.162 310.98 391.088L308.118 396.711C323.062 364.977 342.53 327.35 368.293 284.46Z" fill="url(#paint3_linear_1_572)"/>
<path d="M539.917 74.0835C552.844 74.3765 565.266 80.6513 573.118 91.6548C584.096 107.039 583.429 127.864 571.489 142.514C530.478 192.832 496.958 239.179 469.444 281.114C473.03 279.053 476.545 277.135 480.001 275.333C420.126 308.296 320.027 397.294 267.998 509.124C266.566 501.536 267.213 493.489 270.247 485.862C278.222 465.816 289.756 435.707 308.126 396.697L310.98 391.088C326.841 358.162 346.709 321.204 368.293 284.46C369.239 282.885 370.194 281.303 371.157 279.714C371.11 279.757 371.063 279.799 371.016 279.842C431.052 178.371 503.465 79.9006 539.917 74.0835Z" fill="url(#paint4_linear_1_572)"/>
<path d="M481.162 274.731C501.75 264.115 527.045 272.199 537.66 292.787C548.276 313.375 540.192 338.67 519.604 349.286C489.048 365.041 441.091 398.599 342.472 526.923C329.718 543.517 306.682 548.17 288.488 537.827C277.43 531.54 270.217 520.883 267.998 509.124C320.027 397.292 420.128 308.294 480.003 275.332C480.39 275.13 480.777 274.93 481.162 274.731Z" fill="#32E000"/>
<defs>
<linearGradient id="paint0_linear_1_572" x1="169.911" y1="384.2" x2="410.464" y2="39.0616" gradientUnits="userSpaceOnUse">
<stop stop-color="#32E000" stop-opacity="0.6"/>
<stop offset="0.3125" stop-color="#32E000" stop-opacity="0.5"/>
<stop offset="1" stop-color="#32E000" stop-opacity="0"/>
</linearGradient>
<linearGradient id="paint1_linear_1_572" x1="169.911" y1="384.2" x2="410.464" y2="39.0616" gradientUnits="userSpaceOnUse">
<stop stop-color="#32E000" stop-opacity="0.6"/>
<stop offset="0.3125" stop-color="#32E000" stop-opacity="0.5"/>
<stop offset="1" stop-color="#32E000" stop-opacity="0"/>
</linearGradient>
<linearGradient id="paint2_linear_1_572" x1="540.367" y1="83.3467" x2="227.419" y2="375.629" gradientUnits="userSpaceOnUse">
<stop stop-color="#32E000" stop-opacity="0.8"/>
<stop offset="1" stop-color="#32E000" stop-opacity="0.6"/>
</linearGradient>
<linearGradient id="paint3_linear_1_572" x1="540.367" y1="83.3467" x2="227.419" y2="375.629" gradientUnits="userSpaceOnUse">
<stop stop-color="#32E000" stop-opacity="0.8"/>
<stop offset="1" stop-color="#32E000" stop-opacity="0.6"/>
</linearGradient>
<linearGradient id="paint4_linear_1_572" x1="439.988" y1="490.77" x2="445.892" y2="219.154" gradientUnits="userSpaceOnUse">
<stop stop-color="#32E000"/>
<stop offset="1" stop-color="#32E000" stop-opacity="0.8"/>
</linearGradient>
</defs>
</svg>
