<svg width="692" height="550" viewBox="0 0 692 550" fill="none" xmlns="http://www.w3.org/2000/svg">
<path d="M211.952 9.48096C192.54 28.6165 172.705 57.1278 155.479 99.5068C145.582 123.855 137.435 149.404 130.728 175.05C130.796 174.736 130.864 174.423 130.933 174.11C118.995 187.746 107.38 203.581 96.8933 221.773C83.2344 245.466 52.9539 253.601 29.2604 239.943C5.56679 226.284 -2.56852 196.004 11.0898 172.31C40.6018 121.116 77.2021 83.4235 111.32 57.4043C144.436 32.1499 177.978 15.8345 203.07 10.5332C206.024 9.90932 208.995 9.56203 211.952 9.48096Z" fill="url(#paint0_linear_2147_12)"/>
<path d="M211.952 9.48074C226.355 9.08575 240.399 15.0016 250.206 25.9584C262.025 39.1644 265.885 57.6802 260.329 74.5092C256.702 85.4941 253.189 96.7764 249.797 108.329C250.006 108.161 250.216 107.994 250.425 107.827C228.429 167.788 215.299 249.194 208.277 305.235C207.118 307.574 206.004 309.919 204.942 312.274C194.78 334.786 169.581 346.367 145.879 339.42C122.176 332.473 107.217 309.121 110.816 284.685C116.335 247.213 123.001 210.506 130.725 175.06C137.433 149.411 145.581 123.858 155.479 99.5066C172.706 57.1276 192.54 28.6163 211.952 9.48074Z" fill="url(#paint1_linear_2147_12)"/>
<path d="M365.454 32.2807C384.87 21.8956 408.811 25.5776 424.209 41.3172C439.606 57.057 442.761 81.0735 431.952 100.256C423.915 114.52 415.062 140.159 406.571 175.781C402.318 193.626 398.377 212.995 394.751 233.205C378.308 321.11 369.905 431.391 365.893 502.47C364.15 506.12 362.45 509.762 360.794 513.394C350.943 534.998 327.143 546.569 304.068 540.974C280.993 535.378 265.137 514.191 266.275 490.475C268.301 448.261 275.126 363.032 287.351 277.625C291.361 249.611 295.996 221.255 301.305 194.177C262.113 227.156 228.206 265.018 208.277 305.236C215.299 249.195 228.429 167.788 250.425 107.827C289.09 76.9138 329.584 51.4672 365.454 32.2807Z" fill="url(#paint2_linear_2147_12)"/>
<path d="M601.644 22.7515C620.573 3.01178 651.92 2.35428 671.66 21.2829C691.4 40.2116 692.057 71.5591 673.129 91.299C584.161 184.079 438.427 350.533 365.893 502.469C369.905 431.375 378.312 321.06 394.761 233.145C392.183 247.511 389.764 262.302 387.506 277.272C461.405 174.577 544.897 81.93 601.644 22.7515Z" fill="url(#paint3_linear_2147_12)"/>
<defs>
<linearGradient id="paint0_linear_2147_12" x1="58.7284" y1="200.989" x2="106.546" y2="142.546" gradientUnits="userSpaceOnUse">
<stop stop-color="#155A02" stop-opacity="0"/>
<stop offset="1" stop-color="#155A02" stop-opacity="0.7"/>
</linearGradient>
<linearGradient id="paint1_linear_2147_12" x1="208.22" y1="351.348" x2="145.308" y2="134.016" gradientUnits="userSpaceOnUse">
<stop stop-color="#155A02" stop-opacity="0.8"/>
<stop offset="1" stop-color="#155A02" stop-opacity="0.7"/>
</linearGradient>
<linearGradient id="paint2_linear_2147_12" x1="323.304" y1="26.4253" x2="323.304" y2="542.374" gradientUnits="userSpaceOnUse">
<stop offset="0.418269" stop-color="#155A02" stop-opacity="0.8"/>
<stop offset="1" stop-color="#155A02" stop-opacity="0.9"/>
</linearGradient>
<linearGradient id="paint3_linear_2147_12" x1="491.753" y1="70.4375" x2="423.027" y2="453.341" gradientUnits="userSpaceOnUse">
<stop stop-color="#155A02"/>
<stop offset="1" stop-color="#155A02" stop-opacity="0.9"/>
</linearGradient>
</defs>
</svg>
