<svg width="32" height="32" viewBox="0 0 32 32" fill="none" xmlns="http://www.w3.org/2000/svg">
<path d="M27.4137 13.5851L17.4137 3.58508C17.0387 3.21029 16.5302 2.99976 16 2.99976C15.4698 2.99976 14.9613 3.21029 14.5862 3.58508L4.58625 13.5851C4.39963 13.7703 4.2517 13.9908 4.15105 14.2337C4.05041 14.4766 3.99906 14.7371 4 15.0001V27.0001C4 27.2653 4.10535 27.5196 4.29289 27.7072C4.48043 27.8947 4.73478 28.0001 5 28.0001H13C13.2652 28.0001 13.5196 27.8947 13.7071 27.7072C13.8946 27.5196 14 27.2653 14 27.0001V20.0001H18V27.0001C18 27.2653 18.1054 27.5196 18.2929 27.7072C18.4804 27.8947 18.7348 28.0001 19 28.0001H27C27.2652 28.0001 27.5196 27.8947 27.7071 27.7072C27.8946 27.5196 28 27.2653 28 27.0001V15.0001C28.0009 14.7371 27.9496 14.4766 27.8489 14.2337C27.7483 13.9908 27.6004 13.7703 27.4137 13.5851ZM26 26.0001H20V19.0001C20 18.7349 19.8946 18.4805 19.7071 18.293C19.5196 18.1054 19.2652 18.0001 19 18.0001H13C12.7348 18.0001 12.4804 18.1054 12.2929 18.293C12.1054 18.4805 12 18.7349 12 19.0001V26.0001H6V15.0001L16 5.00008L26 15.0001V26.0001Z" fill="#292C28"/>
</svg>
