<svg width="32" height="32" viewBox="0 0 32 32" fill="none" xmlns="http://www.w3.org/2000/svg">
<path fill-rule="evenodd" clip-rule="evenodd" d="M22 2C26.4183 2 30 5.58172 30 10V22C30 26.4183 26.4183 30 22 30H10C5.58172 30 2 26.4183 2 22V10C2 5.58172 5.58172 2 10 2H22ZM22.3994 10.5C22.1196 10.5001 21.8444 10.6027 21.6357 10.7959L12.7998 18.9766L9.36426 15.7959L9.2832 15.7275C9.08684 15.5784 8.84548 15.5001 8.60059 15.5C8.32066 15.5 8.04471 15.6026 7.83594 15.7959C7.62603 15.9904 7.5 16.2628 7.5 16.5557C7.50006 16.8485 7.62596 17.121 7.83594 17.3154L12.0361 21.2041C12.1397 21.3001 12.2611 21.3747 12.3916 21.4248C12.522 21.4748 12.6606 21.5 12.7998 21.5C12.9392 21.5 13.0784 21.4749 13.209 21.4248C13.3396 21.3747 13.4608 21.3001 13.5645 21.2041L23.1641 12.3154C23.374 12.1209 23.5 11.8485 23.5 11.5557C23.5 11.2628 23.374 10.9904 23.1641 10.7959C22.9553 10.6026 22.6793 10.5 22.3994 10.5Z" fill="#292C28"/>
</svg>
