<svg width="32" height="32" viewBox="0 0 32 32" fill="none" xmlns="http://www.w3.org/2000/svg">
<path d="M26.7075 10.2925L19.7075 3.2925C19.6146 3.19967 19.5042 3.12605 19.3829 3.07586C19.2615 3.02568 19.1314 2.9999 19 3H7C6.46957 3 5.96086 3.21071 5.58579 3.58579C5.21071 3.96086 5 4.46957 5 5V27C5 27.5304 5.21071 28.0391 5.58579 28.4142C5.96086 28.7893 6.46957 29 7 29H25C25.5304 29 26.0391 28.7893 26.4142 28.4142C26.7893 28.0391 27 27.5304 27 27V11C27.0001 10.8686 26.9743 10.7385 26.9241 10.6172C26.874 10.4958 26.8003 10.3854 26.7075 10.2925ZM25 27H7V5H18.5863L25 11.4137V27Z" fill="#292C28"/>
<path fill-rule="evenodd" clip-rule="evenodd" d="M17.037 11.5267C17.3173 11.6815 17.5 12.0461 17.5 12.4506V20.4506C17.5 21.0028 17.1642 21.4506 16.75 21.4506C16.3358 21.4506 16 21.0028 16 20.4506V14.8648L14.7803 16.491C14.4874 16.8815 14.0126 16.8815 13.7197 16.491C13.4268 16.1005 13.4268 15.4673 13.7197 15.0768L16.2197 11.7434C16.4342 11.4574 16.7568 11.3719 17.037 11.5267Z" fill="#292C28"/>
</svg>
