<svg width="32" height="32" viewBox="0 0 32 32" fill="none" xmlns="http://www.w3.org/2000/svg">
<path d="M26.7075 10.2925L19.7075 3.2925C19.6146 3.19967 19.5042 3.12605 19.3829 3.07586C19.2615 3.02568 19.1314 2.9999 19 3H7C6.46957 3 5.96086 3.21071 5.58579 3.58579C5.21071 3.96086 5 4.46957 5 5V27C5 27.5304 5.21071 28.0391 5.58579 28.4142C5.96086 28.7893 6.46957 29 7 29H25C25.5304 29 26.0391 28.7893 26.4142 28.4142C26.7893 28.0391 27 27.5304 27 27V11C27.0001 10.8686 26.9743 10.7385 26.9241 10.6172C26.874 10.4958 26.8003 10.3854 26.7075 10.2925ZM25 27H7V5H18.5863L25 11.4137V27Z" fill="#292C28"/>
<path fill-rule="evenodd" clip-rule="evenodd" d="M13.25 13.7839C13.25 12.4952 14.0335 11.4505 15 11.4505H17C17.9665 11.4505 18.75 12.4952 18.75 13.7839V13.9359C18.75 15.4643 18.0389 16.8324 16.9656 17.3691L14.9122 18.3957C14.8146 18.4445 14.75 18.5689 14.75 18.7079V19.4505H18C18.4142 19.4505 18.75 19.8982 18.75 20.4505C18.75 21.0028 18.4142 21.4505 18 21.4505H14C13.5858 21.4505 13.25 21.0028 13.25 20.4505V18.7079C13.25 17.7352 13.7025 16.8646 14.3855 16.5231L16.4389 15.4964C16.9268 15.2525 17.25 14.6306 17.25 13.9359V13.7839C17.25 13.5998 17.1381 13.4505 17 13.4505H15C14.8619 13.4505 14.75 13.5998 14.75 13.7839V14.4505C14.75 15.0028 14.4142 15.4505 14 15.4505C13.5858 15.4505 13.25 15.0028 13.25 14.4505V13.7839Z" fill="#292C28"/>
</svg>
