<svg width="32" height="32" viewBox="0 0 32 32" fill="none" xmlns="http://www.w3.org/2000/svg">
<path d="M26.2075 15.2925C26.3005 15.3854 26.3742 15.4957 26.4246 15.6171C26.4749 15.7385 26.5008 15.8686 26.5008 16C26.5008 16.1314 26.4749 16.2616 26.4246 16.383C26.3742 16.5044 26.3005 16.6146 26.2075 16.7075L15.9513 26.9575C14.6383 28.2703 12.8575 29.0078 11.0008 29.0077C9.14409 29.0076 7.36345 28.2699 6.05063 26.9569C4.73781 25.6439 4.00034 23.8632 4.00046 22.0065C4.00057 20.1497 4.73827 18.3691 6.05126 17.0563L18.4588 4.46627C19.3961 3.5279 20.6679 3.00034 21.9942 2.99963C23.3206 2.99893 24.5929 3.52515 25.5313 4.46252C26.4696 5.3999 26.9972 6.67164 26.9979 7.998C26.9986 9.32435 26.4724 10.5967 25.535 11.535L13.125 24.125C12.5614 24.6886 11.797 25.0052 11 25.0052C10.203 25.0052 9.43859 24.6886 8.87501 24.125C8.31142 23.5614 7.9948 22.7971 7.9948 22C7.9948 21.203 8.31142 20.4386 8.87501 19.875L19.2875 9.29752C19.3787 9.20022 19.4885 9.12215 19.6103 9.06789C19.7322 9.01364 19.8636 8.98431 19.997 8.98163C20.1303 8.97895 20.2628 9.00296 20.3868 9.05227C20.5107 9.10157 20.6235 9.17516 20.7185 9.26872C20.8136 9.36227 20.889 9.47389 20.9402 9.59702C20.9915 9.72014 21.0176 9.85227 21.0171 9.98564C21.0165 10.119 20.9893 10.2509 20.937 10.3736C20.8847 10.4963 20.8083 10.6073 20.7125 10.7L10.2988 21.2888C10.2055 21.3813 10.1314 21.4912 10.0807 21.6124C10.0299 21.7335 10.0035 21.8635 10.003 21.9948C10.0025 22.1261 10.0278 22.2563 10.0776 22.3778C10.1274 22.4994 10.2006 22.6099 10.2931 22.7031C10.3856 22.7964 10.4956 22.8705 10.6167 22.9212C10.7379 22.972 10.8678 22.9984 10.9992 22.9989C11.1305 22.9994 11.2606 22.9741 11.3822 22.9243C11.5037 22.8745 11.6143 22.8013 11.7075 22.7088L24.1163 10.125C24.6798 9.5626 24.9969 8.79932 24.9977 8.00312C24.9986 7.20691 24.6831 6.44298 24.1206 5.8794C23.5582 5.31581 22.7949 4.99873 21.9987 4.99791C21.2025 4.99709 20.4386 5.3126 19.875 5.87502L7.47001 18.46C7.00529 18.924 6.63651 19.475 6.38473 20.0815C6.13294 20.688 6.00308 21.3381 6.00256 21.9948C6.00204 22.6515 6.13086 23.3018 6.38168 23.9087C6.6325 24.5156 7.00041 25.0672 7.46438 25.5319C7.92836 25.9966 8.47932 26.3654 9.08582 26.6172C9.69232 26.869 10.3425 26.9988 10.9992 26.9993C11.6558 26.9999 12.3062 26.871 12.9131 26.6202C13.52 26.3694 14.0715 26.0015 14.5363 25.5375L24.7938 15.2875C24.9819 15.1008 25.2366 14.9964 25.5017 14.9974C25.7668 14.9983 26.0207 15.1045 26.2075 15.2925Z" fill="#292C28"/>
</svg>
