<svg width="32" height="32" viewBox="0 0 32 32" fill="none" xmlns="http://www.w3.org/2000/svg">
<path d="M19.6296 16.5C19.6296 17.1922 19.4168 17.8689 19.0179 18.4445C18.6191 19.0201 18.0522 19.4687 17.389 19.7336C16.7258 19.9985 15.996 20.0678 15.2919 19.9327C14.5878 19.7977 13.9411 19.4644 13.4335 18.9749C12.9259 18.4854 12.5802 17.8617 12.4401 17.1828C12.3001 16.5039 12.3719 15.8001 12.6467 15.1606C12.9214 14.5211 13.3866 13.9744 13.9835 13.5899C14.5804 13.2053 15.2821 13 16 13C16.9626 13 17.8859 13.3687 18.5665 14.0251C19.2472 14.6815 19.6296 15.5717 19.6296 16.5ZM5.62963 13C4.91176 13 4.21001 13.2053 3.61312 13.5899C3.01623 13.9744 2.55101 14.5211 2.27629 15.1606C2.00157 15.8001 1.92969 16.5039 2.06974 17.1828C2.20979 17.8617 2.55548 18.4854 3.0631 18.9749C3.57071 19.4644 4.21745 19.7977 4.92153 19.9327C5.6256 20.0678 6.3554 19.9985 7.01863 19.7336C7.68186 19.4687 8.24873 19.0201 8.64756 18.4445C9.04639 17.8689 9.25926 17.1922 9.25926 16.5C9.25926 15.5717 8.87685 14.6815 8.19617 14.0251C7.51548 13.3687 6.59227 13 5.62963 13ZM26.3704 13C25.6525 13 24.9507 13.2053 24.3539 13.5899C23.757 13.9744 23.2917 14.5211 23.017 15.1606C22.7423 15.8001 22.6704 16.5039 22.8105 17.1828C22.9505 17.8617 23.2962 18.4854 23.8038 18.9749C24.3114 19.4644 24.9582 19.7977 25.6623 19.9327C26.3663 20.0678 27.0961 19.9985 27.7594 19.7336C28.4226 19.4687 28.9895 19.0201 29.3883 18.4445C29.7871 17.8689 30 17.1922 30 16.5C30 16.0404 29.9061 15.5852 29.7237 15.1606C29.5413 14.736 29.274 14.3501 28.9369 14.0251C28.5999 13.7001 28.1997 13.4423 27.7594 13.2664C27.319 13.0905 26.847 13 26.3704 13Z" fill="#292C28"/>
</svg>
