<svg width="32" height="32" viewBox="0 0 32 32" fill="none" xmlns="http://www.w3.org/2000/svg">
<path d="M16 9.99989C14.8133 9.99989 13.6533 10.3518 12.6666 11.0111C11.6799 11.6704 10.9108 12.6074 10.4567 13.7038C10.0026 14.8002 9.88377 16.0066 10.1153 17.1704C10.3468 18.3343 10.9182 19.4034 11.7574 20.2425C12.5965 21.0817 13.6656 21.6531 14.8295 21.8846C15.9933 22.1161 17.1997 21.9973 18.2961 21.5432C19.3925 21.089 20.3295 20.32 20.9888 19.3333C21.6481 18.3466 22 17.1866 22 15.9999C21.9983 14.4091 21.3657 12.8839 20.2408 11.7591C19.1159 10.6342 17.5908 10.0015 16 9.99989ZM16 19.9999C15.2089 19.9999 14.4355 19.7653 13.7777 19.3258C13.1199 18.8862 12.6072 18.2615 12.3045 17.5306C12.0017 16.7997 11.9225 15.9955 12.0769 15.2195C12.2312 14.4436 12.6122 13.7309 13.1716 13.1715C13.731 12.6121 14.4437 12.2311 15.2196 12.0768C15.9956 11.9224 16.7998 12.0016 17.5307 12.3044C18.2616 12.6071 18.8863 13.1198 19.3259 13.7776C19.7654 14.4354 20 15.2088 20 15.9999C20 17.0608 19.5786 18.0782 18.8284 18.8283C18.0783 19.5785 17.0609 19.9999 16 19.9999ZM29.7425 13.4011C29.7146 13.2603 29.6568 13.1272 29.5729 13.0107C29.489 12.8942 29.381 12.7972 29.2562 12.7261L25.5275 10.6011L25.5125 6.39864C25.512 6.25391 25.4802 6.111 25.4191 5.97979C25.358 5.84857 25.2692 5.73218 25.1587 5.63864C23.8062 4.49452 22.2485 3.61773 20.5687 3.05489C20.4365 3.01012 20.2963 2.99355 20.1572 3.00625C20.0181 3.01895 19.8832 3.06065 19.7612 3.12864L16 5.23114L12.235 3.12489C12.1129 3.05651 11.9779 3.01451 11.8386 3.00159C11.6993 2.98867 11.5588 3.00513 11.4262 3.04989C9.74768 3.61684 8.19186 4.49698 6.84124 5.64364C6.73095 5.73704 6.64222 5.85323 6.58115 5.98422C6.52008 6.11521 6.48813 6.25787 6.48749 6.40239L6.46874 10.6086L2.73999 12.7336C2.61525 12.8047 2.50725 12.9017 2.42335 13.0182C2.33944 13.1347 2.2816 13.2678 2.25374 13.4086C1.91249 15.1235 1.91249 16.8888 2.25374 18.6036C2.2816 18.7445 2.33944 18.8776 2.42335 18.9941C2.50725 19.1106 2.61525 19.2076 2.73999 19.2786L6.46874 21.4036L6.48374 25.6061C6.4842 25.7509 6.51606 25.8938 6.57714 26.025C6.63821 26.1562 6.72704 26.2726 6.83749 26.3661C8.19008 27.5103 9.74769 28.3871 11.4275 28.9499C11.5598 28.9947 11.7 29.0112 11.8391 28.9985C11.9781 28.9858 12.113 28.9441 12.235 28.8761L16 26.7686L19.765 28.8749C19.914 28.9579 20.0819 29.001 20.2525 28.9999C20.3617 28.9999 20.4702 28.9821 20.5737 28.9474C22.2521 28.3812 23.8079 27.5019 25.1587 26.3561C25.269 26.2627 25.3578 26.1466 25.4188 26.0156C25.4799 25.8846 25.5119 25.7419 25.5125 25.5974L25.5312 21.3911L29.26 19.2661C29.3847 19.1951 29.4927 19.0981 29.5766 18.9816C29.6605 18.8651 29.7184 18.732 29.7462 18.5911C30.0856 16.8777 30.0843 15.1141 29.7425 13.4011ZM27.8675 17.7649L24.2962 19.7961C24.1398 19.8851 24.0102 20.0147 23.9212 20.1711C23.8487 20.2961 23.7725 20.4286 23.695 20.5536C23.5958 20.7113 23.5429 20.8936 23.5425 21.0799L23.5237 25.1111C22.5638 25.865 21.4944 26.4677 20.3525 26.8986L16.75 24.8911C16.6004 24.8084 16.4322 24.7654 16.2612 24.7661H16.2375C16.0862 24.7661 15.9337 24.7661 15.7825 24.7661C15.6036 24.7617 15.4267 24.8048 15.27 24.8911L11.665 26.9036C10.5206 26.4761 9.44827 25.8762 8.48499 25.1249L8.47124 21.0999C8.47063 20.9133 8.4178 20.7306 8.31874 20.5724C8.24124 20.4474 8.16499 20.3224 8.09374 20.1899C8.0054 20.031 7.87585 19.8989 7.71874 19.8074L4.14374 17.7711C3.95874 16.6009 3.95874 15.4089 4.14374 14.2386L7.70874 12.2036C7.86522 12.1147 7.99477 11.9851 8.08374 11.8286C8.15624 11.7036 8.23249 11.5711 8.30999 11.4461C8.4092 11.2885 8.46204 11.1061 8.46249 10.9199L8.48124 6.88864C9.44115 6.13483 10.5106 5.53204 11.6525 5.10114L15.25 7.10864C15.4066 7.19543 15.5836 7.2386 15.7625 7.23364C15.9137 7.23364 16.0662 7.23364 16.2175 7.23364C16.3964 7.23811 16.5732 7.19498 16.73 7.10864L20.335 5.09614C21.4794 5.52374 22.5517 6.12357 23.515 6.87489L23.5287 10.8999C23.5294 11.0865 23.5822 11.2692 23.6812 11.4274C23.7587 11.5524 23.835 11.6774 23.9062 11.8099C23.9946 11.9688 24.1241 12.1009 24.2812 12.1924L27.8562 14.2286C28.0437 15.3998 28.0458 16.5931 27.8625 17.7649H27.8675Z" fill="#292C28"/>
</svg>
