<svg width="40" height="40" viewBox="0 0 40 40" fill="none" xmlns="http://www.w3.org/2000/svg">
<rect x="24" y="14" width="14" height="2" transform="rotate(90 24 14)" fill="#32E000"/>
<rect x="30" y="14" width="6" height="1" transform="rotate(90 30 14)" fill="#32E000"/>
<rect x="30" y="24" width="4" height="1" transform="rotate(90 30 24)" fill="#32E000"/>
<rect x="17" y="21" width="7" height="2" transform="rotate(90 17 21)" fill="#32E000"/>
<rect x="17" y="14" width="4" height="2" transform="rotate(90 17 14)" fill="#32E000"/>
<rect x="11" y="14" width="14" height="2" transform="rotate(90 11 14)" fill="#32E000"/>
<g clip-path="url(#clip0_14206_12461)">
<path fill-rule="evenodd" clip-rule="evenodd" d="M-0.371094 11.8919C-0.371094 7.16517 3.47963 3.33337 8.22973 3.33337H8.59187C9.34188 3.33337 9.94989 3.93839 9.94989 4.68473C9.94989 5.43106 9.34188 6.03608 8.59187 6.03608H8.22973C4.97966 6.03608 2.34496 8.65783 2.34496 11.8919V28.1081C2.34496 31.3422 4.97966 33.964 8.22973 33.964H31.7688C35.0189 33.964 37.6536 31.3422 37.6536 28.1081V11.8919C37.6536 8.65783 35.0189 6.03608 31.7688 6.03608H17.1474C16.3974 6.03608 15.7894 5.43106 15.7894 4.68473C15.7894 3.93839 16.3974 3.33337 17.1474 3.33337H31.7688C36.5189 3.33337 40.3696 7.16517 40.3696 11.8919V28.1081C40.3696 32.8349 36.5189 36.6667 31.7688 36.6667H8.22973C3.47963 36.6667 -0.371094 32.8349 -0.371094 28.1081V11.8919Z" fill="#14412A"/>
<path fill-rule="evenodd" clip-rule="evenodd" d="M7.12891 15.1289C7.12891 13.7282 8.28111 12.5927 9.70244 12.5927C11.1238 12.5927 12.276 13.7282 12.276 15.1289V26.7231C12.276 28.1238 11.1238 29.2593 9.70244 29.2593C8.28111 29.2593 7.12891 28.1238 7.12891 26.7231V15.1289ZM9.70244 14.7666C9.49939 14.7666 9.33479 14.9288 9.33479 15.1289V26.7231C9.33479 26.9232 9.49939 27.0854 9.70244 27.0854C9.90548 27.0854 10.0701 26.9232 10.0701 26.7231V15.1289C10.0701 14.9288 9.90548 14.7666 9.70244 14.7666Z" fill="#14412A"/>
<path fill-rule="evenodd" clip-rule="evenodd" d="M13.7461 15.1289C13.7461 13.7282 14.8983 12.5927 16.3196 12.5927C17.7409 12.5927 18.8932 13.7282 18.8932 15.1289V16.5782C18.8932 17.9789 17.7409 19.1144 16.3196 19.1144C14.8983 19.1144 13.7461 17.9789 13.7461 16.5782V15.1289ZM16.3196 14.7666C16.1166 14.7666 15.952 14.9288 15.952 15.1289V16.5782C15.952 16.7783 16.1166 16.9405 16.3196 16.9405C16.5227 16.9405 16.6873 16.7783 16.6873 16.5782V15.1289C16.6873 14.9288 16.5227 14.7666 16.3196 14.7666Z" fill="#14412A"/>
<path fill-rule="evenodd" clip-rule="evenodd" d="M32.1289 26.723C32.1289 28.1238 30.9767 29.2593 29.5554 29.2593C28.1341 29.2593 26.9818 28.1238 26.9818 26.723L26.9818 25.2738C26.9818 23.873 28.1341 22.7375 29.5554 22.7375C30.9767 22.7375 32.1289 23.873 32.1289 25.2738L32.1289 26.723ZM29.5554 27.0854C29.7584 27.0854 29.923 26.9231 29.923 26.723L29.923 25.2738C29.923 25.0737 29.7584 24.9115 29.5554 24.9115C29.3523 24.9115 29.1877 25.0737 29.1877 25.2738L29.1877 26.723C29.1877 26.9231 29.3523 27.0854 29.5554 27.0854Z" fill="#14412A"/>
<path fill-rule="evenodd" clip-rule="evenodd" d="M13.7461 22.3753C13.7461 20.9746 14.8983 19.8391 16.3196 19.8391C17.7409 19.8391 18.8932 20.9746 18.8932 22.3753V26.7232C18.8932 28.1239 17.7409 29.2594 16.3196 29.2594C14.8983 29.2594 13.7461 28.1239 13.7461 26.7232V22.3753ZM16.3196 22.013C16.1166 22.013 15.952 22.1752 15.952 22.3753V26.7232C15.952 26.9233 16.1166 27.0855 16.3196 27.0855C16.5227 27.0855 16.6873 26.9233 16.6873 26.7232V22.3753C16.6873 22.1752 16.5227 22.013 16.3196 22.013Z" fill="#14412A"/>
<path fill-rule="evenodd" clip-rule="evenodd" d="M32.1289 19.4766C32.1289 20.8773 30.9767 22.0128 29.5554 22.0128C28.1341 22.0128 26.9818 20.8773 26.9818 19.4766L26.9818 15.1288C26.9818 13.728 28.1341 12.5925 29.5554 12.5925C30.9767 12.5925 32.1289 13.728 32.1289 15.1288L32.1289 19.4766ZM29.5554 19.8389C29.7584 19.8389 29.923 19.6767 29.923 19.4766L29.923 15.1288C29.923 14.9287 29.7584 14.7664 29.5554 14.7664C29.3523 14.7664 29.1877 14.9287 29.1877 15.1288L29.1877 19.4766C29.1877 19.6767 29.3523 19.8389 29.5554 19.8389Z" fill="#14412A"/>
<path fill-rule="evenodd" clip-rule="evenodd" d="M20.3633 15.1289C20.3633 13.7282 21.5155 12.5927 22.9368 12.5927C24.3581 12.5927 25.5103 13.7282 25.5103 15.1289V26.7231C25.5103 28.1238 24.3581 29.2593 22.9368 29.2593C21.5155 29.2593 20.3633 28.1238 20.3633 26.7231V15.1289ZM22.9368 14.7666C22.7338 14.7666 22.5692 14.9288 22.5692 15.1289V26.7231C22.5692 26.9232 22.7338 27.0854 22.9368 27.0854C23.1399 27.0854 23.3045 26.9232 23.3045 26.7231V15.1289C23.3045 14.9288 23.1399 14.7666 22.9368 14.7666Z" fill="#14412A"/>
</g>
<defs>
<clipPath id="clip0_14206_12461">
<rect width="40" height="40" fill="white"/>
</clipPath>
</defs>
</svg>
