<svg width="40" height="40" viewBox="0 0 40 40" fill="none" xmlns="http://www.w3.org/2000/svg">
<rect x="1.64062" y="31.8281" width="11.9297" height="8.46387" transform="rotate(-43.1596 1.64062 31.8281)" fill="#32E000"/>
<g clip-path="url(#clip0_14206_12505)">
<path fill-rule="evenodd" clip-rule="evenodd" d="M20.7838 2.5165C24.4595 0.138245 28.6675 0.176275 31.5265 0.724719C32.6202 0.934507 33.3561 1.72787 33.5767 2.66989C33.7915 3.58683 33.5124 4.59273 32.7724 5.31087L29.222 8.75657C29.0534 8.92023 29.0534 9.1909 29.222 9.35457L30.6856 10.775C30.8384 10.9233 31.0785 10.9325 31.2423 10.7963L34.9915 7.67741C35.7271 7.06552 36.6827 6.86998 37.538 7.11109C38.4184 7.35929 39.1541 8.06694 39.352 9.10178C39.8793 11.8588 39.7155 15.9562 36.4742 19.1019C32.876 22.594 28.5061 22.8434 25.9962 22.4144C25.6914 22.3623 25.4815 22.4511 25.3846 22.5451L9.4461 38.0137C8.25156 39.1731 6.33059 39.0992 5.22866 37.8515L1.78133 33.9482C0.750271 32.7807 0.818436 31.0092 1.93615 29.9244L9.06154 23.0091C10.1931 21.9109 11.9926 21.9109 13.1242 23.0091L14.7916 24.6273C15.287 25.1081 15.2988 25.8995 14.818 26.3949C14.3372 26.8903 13.5459 26.9021 13.0505 26.4213L11.383 24.8031C11.2214 24.6462 10.9643 24.6462 10.8027 24.8031L3.67727 31.7184C3.5176 31.8734 3.50786 32.1265 3.65515 32.2932L7.10249 36.1965C7.25991 36.3748 7.53433 36.3853 7.70498 36.2197L23.6435 20.7511C24.4322 19.9856 25.5058 19.7943 26.4174 19.9501C28.394 20.2879 31.8696 20.0869 34.7331 17.3079C37.1412 14.9708 37.337 11.8742 36.8965 9.5714C36.8914 9.54454 36.8852 9.53166 36.8824 9.52699C36.8802 9.52539 36.8736 9.52124 36.8596 9.5173C36.813 9.50415 36.7059 9.50321 36.5903 9.59934L32.8411 12.7182C31.695 13.6717 30.0143 13.6073 28.9445 12.569L27.4809 11.1486C26.3004 10.0029 26.3004 8.10822 27.4809 6.96255L31.0313 3.51686C31.1506 3.40103 31.1541 3.28896 31.1426 3.24002C31.1369 3.2158 31.1288 3.20788 31.1279 3.20697C31.1269 3.20605 31.1237 3.20301 31.1155 3.19876C31.1073 3.19452 31.0888 3.18634 31.0555 3.17995C28.5387 2.69716 25.0708 2.72039 22.1418 4.61547C20.4876 5.68577 19.6636 7.2971 19.3377 9.06713C19.0078 10.859 19.2078 12.7418 19.5533 14.1482C19.7993 15.1493 19.568 16.2961 18.746 17.0939L16.677 19.1019C16.1816 19.5827 15.3903 19.5708 14.9095 19.0754C14.4287 18.58 14.4405 17.7887 14.9359 17.3079L17.0049 15.2999C17.1096 15.1983 17.1877 14.9978 17.1255 14.7447C16.7218 13.1016 16.4678 10.8484 16.879 8.61448C17.2943 6.35874 18.4066 4.05456 20.7838 2.5165Z" fill="#14412A"/>
</g>
<defs>
<clipPath id="clip0_14206_12505">
<rect width="40" height="40" fill="white"/>
</clipPath>
</defs>
</svg>
