<svg width="49" height="49" viewBox="0 0 49 49" fill="none" xmlns="http://www.w3.org/2000/svg">
<rect x="16" y="23" width="18" height="13" fill="#32E000"/>
<path d="M40.8959 15.7604L30.1771 5.04164C30.0348 4.89949 29.8659 4.78677 29.68 4.70992C29.4941 4.63307 29.2949 4.59359 29.0938 4.59375H10.7188C9.90652 4.59375 9.12757 4.91641 8.55324 5.49074C7.97891 6.06507 7.65625 6.84402 7.65625 7.65625V41.3438C7.65625 42.156 7.97891 42.9349 8.55324 43.5093C9.12757 44.0836 9.90652 44.4062 10.7188 44.4062H38.2812C39.0935 44.4062 39.8724 44.0836 40.4468 43.5093C41.0211 42.9349 41.3438 42.156 41.3438 41.3438V16.8438C41.3439 16.6426 41.3044 16.4434 41.2276 16.2575C41.1507 16.0716 41.038 15.9027 40.8959 15.7604ZM39 42H10V7H29L39 17V42ZM33.6875 22H16.5C16.0939 22 15.2872 22.2128 15 22.5C14.7128 22.7872 14.5 23.5939 14.5 24V35.5C14.5 35.9061 14.5 37 15 37C15.5 37 16.5939 37 17 37H33.6875C34.0936 37 34.5 37 35 36.5C35 36.5 35.2188 36.1791 35.2188 35.2188V24.1833C35.2188 23.7771 35.2872 22.7872 35 22.5C34.7128 22.2128 34.0936 22 33.6875 22ZM34 35.2188H29.0938V29.0938C29.0938 28.6876 28.9324 28.2982 28.6453 28.011C28.3581 27.7238 27.9686 27.5625 27.5625 27.5625C27.1564 27.5625 26.7669 27.7238 26.4797 28.011C26.1926 28.2982 26.0312 28.6876 26.0312 29.0938V35.2188H22.9688V29.0938C22.9688 28.6876 22.8074 28.2982 22.5203 28.011C22.2331 27.7238 21.8436 27.5625 21.4375 27.5625C21.0314 27.5625 20.6419 27.7238 20.3547 28.011C20.0676 28.2982 19.9062 28.6876 19.9062 29.0938V35.2188H16V24H34V35.2188Z" fill="#14412A"/>
</svg>
