<svg width="40" height="40" viewBox="0 0 40 40" fill="none" xmlns="http://www.w3.org/2000/svg">
<rect x="6" y="12" width="31" height="5" fill="#32E000"/>
<g clip-path="url(#clip0_14206_12480)">
<path fill-rule="evenodd" clip-rule="evenodd" d="M0 8.03423C0 5.43802 2.09569 3.33337 4.68085 3.33337H35.3191C37.9043 3.33337 40 5.43802 40 8.03423V13.0022V13.6966C40 14.0451 39.9622 14.3847 39.8906 14.7116C39.9622 15.0384 40 15.3781 40 15.7265V16.6347V24.8077V31.9659C40 34.5621 37.9043 36.6667 35.3191 36.6667H4.68085C2.09569 36.6667 0 34.5621 0 31.9659V28.6539C0 27.9458 0.571551 27.3718 1.2766 27.3718C1.98164 27.3718 2.55319 27.9458 2.55319 28.6539V31.9659C2.55319 33.1459 3.50578 34.1026 4.68085 34.1026H35.3191C36.4942 34.1026 37.4468 33.1459 37.4468 31.9659V24.8077V17.8849C36.8085 18.2126 36.0853 18.3975 35.3191 18.3975H7.92553C5.89853 18.3975 4.25532 16.7472 4.25532 14.7116C4.25532 12.6759 5.89853 11.0257 7.92553 11.0257H35.3191C36.0853 11.0257 36.8085 11.2105 37.4468 11.5383V8.03423C37.4468 6.85413 36.4942 5.89748 35.3191 5.89748H4.68085C3.50578 5.89748 2.55319 6.85413 2.55319 8.03423V20.9616C2.55319 21.6696 1.98164 22.2436 1.2766 22.2436C0.571551 22.2436 0 21.6696 0 20.9616V8.03423ZM37.1919 14.7116C36.8322 14.0436 36.1284 13.5898 35.3191 13.5898H7.92553C7.30862 13.5898 6.80851 14.092 6.80851 14.7116C6.80851 15.3311 7.30862 15.8334 7.92553 15.8334H35.3191C36.1284 15.8334 36.8322 15.3796 37.1919 14.7116ZM5.10638 30.2564C5.10638 29.5484 5.67793 28.9744 6.38298 28.9744H8.93617C9.64121 28.9744 10.2128 29.5484 10.2128 30.2564C10.2128 30.9645 9.64121 31.5385 8.93617 31.5385H6.38298C5.67793 31.5385 5.10638 30.9645 5.10638 30.2564ZM12.3404 28.9744C11.6354 28.9744 11.0638 29.5484 11.0638 30.2564C11.0638 30.9645 11.6354 31.5385 12.3404 31.5385H23.4043C24.1093 31.5385 24.6809 30.9645 24.6809 30.2564C24.6809 29.5484 24.1093 28.9744 23.4043 28.9744H12.3404Z" fill="#14412A"/>
</g>
<defs>
<clipPath id="clip0_14206_12480">
<rect width="40" height="40" fill="white"/>
</clipPath>
</defs>
</svg>
