<svg width="40" height="40" viewBox="0 0 40 40" fill="none" xmlns="http://www.w3.org/2000/svg">
<rect x="25" y="16.9004" width="13" height="7" fill="#32E000"/>
<g clip-path="url(#clip0_14206_12491)">
<path fill-rule="evenodd" clip-rule="evenodd" d="M0 8.03423C0 5.43802 2.09569 3.33337 4.68085 3.33337H35.3191C37.9043 3.33337 40 5.43802 40 8.03423V31.9659C40 34.5621 37.9043 36.6667 35.3191 36.6667H4.68085C2.09569 36.6667 0 34.5621 0 31.9659V28.547C0 27.839 0.571551 27.265 1.2766 27.265C1.98164 27.265 2.55319 27.839 2.55319 28.547V31.9659C2.55319 33.1459 3.50578 34.1026 4.68085 34.1026H35.3191C36.4942 34.1026 37.4468 33.1459 37.4468 31.9659V25.2944C36.8085 25.6221 36.0853 25.807 35.3191 25.807H28.3717C25.7865 25.807 23.6908 23.7023 23.6908 21.1061V19.7989C23.6908 17.2027 25.7865 15.0981 28.3717 15.0981H35.3191C36.0853 15.0981 36.8085 15.2829 37.4468 15.6107V8.03423C37.4468 6.85413 36.4942 5.89748 35.3191 5.89748H4.68085C3.50578 5.89748 2.55319 6.85413 2.55319 8.03423V20.8547C2.55319 21.5628 1.98164 22.1368 1.2766 22.1368C0.571551 22.1368 0 21.5628 0 20.8547V8.03423ZM37.4468 19.7989C37.4468 18.6188 36.4942 17.6622 35.3191 17.6622H28.3717C27.1966 17.6622 26.244 18.6188 26.244 19.7989V21.1061C26.244 22.2862 27.1966 23.2429 28.3717 23.2429H35.3191C36.4942 23.2429 37.4468 22.2862 37.4468 21.1061V19.7989Z" fill="#14412A"/>
</g>
<defs>
<clipPath id="clip0_14206_12491">
<rect width="40" height="40" fill="white"/>
</clipPath>
</defs>
</svg>
