<svg width="32" height="32" viewBox="0 0 32 32" fill="none" xmlns="http://www.w3.org/2000/svg">
<path d="M14.7074 21.2926C14.8004 21.3854 14.8742 21.4957 14.9245 21.6171C14.9748 21.7385 15.0007 21.8686 15.0007 22.0001C15.0007 22.1315 14.9748 22.2616 14.9245 22.383C14.8742 22.5044 14.8004 22.6147 14.7074 22.7076L10.7074 26.7076C10.6146 26.8005 10.5043 26.8743 10.3829 26.9246C10.2615 26.9749 10.1314 27.0008 9.99995 27.0008C9.86853 27.0008 9.7384 26.9749 9.61701 26.9246C9.49561 26.8743 9.38532 26.8005 9.29245 26.7076L5.29245 22.7076C5.19954 22.6146 5.12584 22.5043 5.07555 22.3829C5.02527 22.2616 4.99939 22.1314 4.99939 22.0001C4.99939 21.8687 5.02527 21.7386 5.07555 21.6172C5.12584 21.4958 5.19954 21.3855 5.29245 21.2926C5.48009 21.1049 5.73458 20.9995 5.99995 20.9995C6.13134 20.9995 6.26145 21.0254 6.38284 21.0757C6.50424 21.1259 6.61454 21.1996 6.70745 21.2926L8.99995 23.5863V6.00005C8.99995 5.73484 9.1053 5.48048 9.29284 5.29295C9.48038 5.10541 9.73473 5.00005 9.99995 5.00005C10.2652 5.00005 10.5195 5.10541 10.7071 5.29295C10.8946 5.48048 10.9999 5.73484 10.9999 6.00005V23.5863L13.2924 21.2926C13.3853 21.1996 13.4956 21.1258 13.617 21.0755C13.7384 21.0252 13.8685 20.9993 13.9999 20.9993C14.1314 20.9993 14.2615 21.0252 14.3829 21.0755C14.5043 21.1258 14.6146 21.1996 14.7074 21.2926ZM26.7074 9.29255L22.7074 5.29255C22.6146 5.19958 22.5043 5.12582 22.3829 5.07549C22.2615 5.02517 22.1314 4.99927 21.9999 4.99927C21.8685 4.99927 21.7384 5.02517 21.617 5.07549C21.4956 5.12582 21.3853 5.19958 21.2924 5.29255L17.2924 9.29255C17.1048 9.48019 16.9994 9.73469 16.9994 10.0001C16.9994 10.2654 17.1048 10.5199 17.2924 10.7076C17.4801 10.8952 17.7346 11.0006 17.9999 11.0006C18.2653 11.0006 18.5198 10.8952 18.7074 10.7076L20.9999 8.4138V26.0001C20.9999 26.2653 21.1053 26.5196 21.2928 26.7072C21.4804 26.8947 21.7347 27.0001 21.9999 27.0001C22.2652 27.0001 22.5195 26.8947 22.7071 26.7072C22.8946 26.5196 22.9999 26.2653 22.9999 26.0001V8.4138L25.2924 10.7076C25.4801 10.8952 25.7346 11.0006 25.9999 11.0006C26.2653 11.0006 26.5198 10.8952 26.7074 10.7076C26.8951 10.5199 27.0005 10.2654 27.0005 10.0001C27.0005 9.73469 26.8951 9.48019 26.7074 9.29255Z" fill="#292C28"/>
</svg>
