<svg width="38" height="38" viewBox="0 0 38 38" fill="none" xmlns="http://www.w3.org/2000/svg">
<path d="M23 19H14C13.4477 19 13 19.4477 13 20V32.5723C13 33.2663 13.6896 33.7493 14.3417 33.5121L23.3417 30.2394C23.7369 30.0957 24 29.7201 24 29.2996V20C24 19.4477 23.5523 19 23 19Z" fill="#32E000"/>
<path d="M14.3045 32.6298L22.3313 29.6169C22.7215 29.4705 22.9799 29.0974 22.9799 28.6807V20.8984C22.9799 20.3462 22.5322 19.8984 21.9799 19.8984H15.3045C14.7522 19.8984 14.3045 20.3462 14.3045 20.8984V32.6298ZM32.388 35.9513C32.388 37.0825 31.4126 37.9999 30.2088 38H14.152C12.9481 38 11.9717 37.0825 11.9717 35.9513V35.8648L7.88453 37.3999C6.4528 37.9373 4.89536 36.946 4.89536 35.4973V19.8984H2.18441C0.253183 19.8984 -0.724479 17.7124 0.626948 16.416L17.0996 0.615299L17.2639 0.47295C18.0564 -0.147189 19.2097 -0.158814 20.0155 0.445969L20.1828 0.585527L37.3416 16.3872L37.4654 16.51C38.6747 17.8082 37.7075 19.8984 35.8158 19.8984H32.388V35.9513ZM25.3116 29.4702C25.3116 30.3082 24.7684 31.062 23.9403 31.3729L14.3045 34.9893C14.3045 35.4415 14.671 35.808 15.1232 35.808H29.0563C29.6086 35.808 30.0563 35.3603 30.0563 34.808V19.7552C30.0563 18.6239 31.0326 17.7065 32.2365 17.7065H34.1624C34.6179 17.7065 34.8361 17.1472 34.5011 16.8386L19.0037 2.56831C18.8094 2.3894 18.5095 2.39247 18.3189 2.57531L3.44314 16.8456C3.11806 17.1575 3.3388 17.7065 3.78928 17.7065H5.04784C6.25172 17.7065 7.22808 18.6239 7.22808 19.7552V35.2861L11.9717 33.5053V19.7552C11.9717 18.6239 12.9481 17.7065 14.152 17.7065H23.1324C24.3362 17.7066 25.3116 18.624 25.3116 19.7552V29.4702Z" fill="#14412A"/>
</svg>
