<svg width="32" height="32" viewBox="0 0 32 32" fill="none" xmlns="http://www.w3.org/2000/svg">
<path d="M29.4175 14.59L17.41 2.5825C17.0353 2.21 16.5284 2.00092 16 2.00092C15.4716 2.00092 14.9647 2.21 14.59 2.5825L2.5825 14.59C2.21 14.9647 2.00092 15.4716 2.00092 16C2.00092 16.5284 2.21 17.0353 2.5825 17.41L14.59 29.4175C14.9647 29.79 15.4716 29.9991 16 29.9991C16.5284 29.9991 17.0353 29.79 17.41 29.4175L29.4175 17.41C29.79 17.0353 29.9991 16.5284 29.9991 16C29.9991 15.4716 29.79 14.9647 29.4175 14.59ZM16 4L23 11H20C19.8686 10.9999 19.7385 11.0257 19.6171 11.0759C19.4958 11.1261 19.3854 11.1997 19.2925 11.2925L16 14.585L12.7075 11.2925C12.6146 11.1997 12.5042 11.1261 12.3829 11.0759C12.2615 11.0257 12.1314 10.9999 12 11H9L16 4ZM7 13H11.585L14.585 16L11.585 19H7L4 16L7 13ZM16 28L9 21H12C12.1314 21.0001 12.2615 20.9743 12.3829 20.9241C12.5042 20.8739 12.6146 20.8003 12.7075 20.7075L16 17.4138L19.2925 20.7075C19.3854 20.8003 19.4958 20.8739 19.6171 20.9241C19.7385 20.9743 19.8686 21.0001 20 21H23L16 28ZM25 19H20.415L17.415 16L20.415 13H25L28 16L25 19Z" fill="#292C28"/>
</svg>
