<svg width="32" height="32" viewBox="0 0 32 32" fill="none" xmlns="http://www.w3.org/2000/svg">
<path d="M25 11.0001V24.0001C25 24.2653 24.8947 24.5196 24.7071 24.7072C24.5196 24.8947 24.2652 25.0001 24 25.0001H11C10.7348 25.0001 10.4804 24.8947 10.2929 24.7072C10.1054 24.5196 10 24.2653 10 24.0001C10 23.7349 10.1054 23.4805 10.2929 23.293C10.4804 23.1054 10.7348 23.0001 11 23.0001H21.5863L7.29251 8.70757C7.10487 8.51993 6.99945 8.26543 6.99945 8.00007C6.99945 7.7347 7.10487 7.48021 7.29251 7.29257C7.48015 7.10493 7.73464 6.99951 8.00001 6.99951C8.26537 6.99951 8.51987 7.10493 8.70751 7.29257L23 21.5863V11.0001C23 10.7349 23.1054 10.4805 23.2929 10.293C23.4804 10.1054 23.7348 10.0001 24 10.0001C24.2652 10.0001 24.5196 10.1054 24.7071 10.293C24.8947 10.4805 25 10.7349 25 11.0001Z" fill="#292C28"/>
</svg>
