<svg width="32" height="32" viewBox="0 0 32 32" fill="none" xmlns="http://www.w3.org/2000/svg">
<path d="M29.9323 13.2592L28.299 9.09408C28.1604 8.74168 27.9213 8.43984 27.6126 8.22766C27.3039 8.01548 26.9399 7.90274 26.5677 7.90405H22.5333V6.95203C22.5333 6.69953 22.435 6.45738 22.26 6.27884C22.0849 6.1003 21.8475 6 21.6 6H3.86667C3.3716 6 2.8968 6.2006 2.54673 6.55768C2.19667 6.91476 2 7.39907 2 7.90405V21.2324C2 21.7374 2.19667 22.2217 2.54673 22.5788C2.8968 22.9359 3.3716 23.1365 3.86667 23.1365H5.85C6.05561 23.9556 6.52265 24.6816 7.17749 25.2001C7.83232 25.7186 8.63771 26 9.46667 26C10.2956 26 11.101 25.7186 11.7558 25.2001C12.4107 24.6816 12.8777 23.9556 13.0833 23.1365H18.9167C19.1223 23.9556 19.5893 24.6816 20.2442 25.2001C20.899 25.7186 21.7044 26 22.5333 26C23.3623 26 24.1677 25.7186 24.8225 25.2001C25.4773 24.6816 25.9444 23.9556 26.15 23.1365H28.1333C28.6284 23.1365 29.1032 22.9359 29.4533 22.5788C29.8033 22.2217 30 21.7374 30 21.2324V13.6162C30.0004 13.4938 29.9774 13.3726 29.9323 13.2592ZM22.5333 9.8081H26.5677L27.6877 12.6642H22.5333V9.8081ZM3.86667 7.90405H20.6667V15.5203H3.86667V7.90405ZM9.46667 24.0885C9.09747 24.0885 8.73657 23.9768 8.4296 23.7676C8.12263 23.5584 7.88337 23.261 7.74209 22.9131C7.60081 22.5652 7.56384 22.1823 7.63587 21.813C7.70789 21.4436 7.88568 21.1044 8.14673 20.8381C8.40779 20.5718 8.7404 20.3904 9.1025 20.317C9.46459 20.2435 9.83992 20.2812 10.181 20.4253C10.5221 20.5694 10.8136 20.8135 11.0187 21.1266C11.2239 21.4397 11.3333 21.8078 11.3333 22.1844C11.3333 22.6894 11.1367 23.1737 10.7866 23.5308C10.4365 23.8879 9.96174 24.0885 9.46667 24.0885ZM18.9167 21.2324H13.0833C12.8777 20.4133 12.4107 19.6872 11.7558 19.1688C11.101 18.6503 10.2956 18.3689 9.46667 18.3689C8.63771 18.3689 7.83232 18.6503 7.17749 19.1688C6.52265 19.6872 6.05561 20.4133 5.85 21.2324H3.86667V17.4243H20.6667V18.8892C20.2374 19.1422 19.8617 19.4796 19.5613 19.8818C19.2609 20.2841 19.0418 20.7431 18.9167 21.2324ZM22.5333 24.0885C22.1641 24.0885 21.8032 23.9768 21.4963 23.7676C21.1893 23.5584 20.95 23.261 20.8088 22.9131C20.6675 22.5652 20.6305 22.1823 20.7025 21.813C20.7746 21.4436 20.9523 21.1044 21.2134 20.8381C21.4745 20.5718 21.8071 20.3904 22.1692 20.317C22.5313 20.2435 22.9066 20.2812 23.2477 20.4253C23.5888 20.5694 23.8803 20.8135 24.0854 21.1266C24.2905 21.4397 24.4 21.8078 24.4 22.1844C24.4 22.6894 24.2033 23.1737 23.8533 23.5308C23.5032 23.8879 23.0284 24.0885 22.5333 24.0885ZM28.1333 21.2324H26.15C25.9419 20.4153 25.474 19.6916 24.8195 19.1748C24.1651 18.6579 23.361 18.3771 22.5333 18.3763V14.5682H28.1333V21.2324Z" fill="#292C28"/>
</svg>
