<svg width="32" height="32" viewBox="0 0 32 32" fill="none" xmlns="http://www.w3.org/2000/svg">
<path d="M22.6559 15.7659C22.9245 15.2925 23.5319 15.1232 24.0119 15.3879C24.4919 15.6528 24.6636 16.2519 24.3952 16.7253C23.6017 18.1238 22.6062 19.0733 21.4964 19.619C20.3868 20.1645 19.2247 20.2756 18.1542 20.0968C16.0777 19.7497 14.2153 18.2816 13.6183 16.5641C13.4401 16.051 13.7178 15.4919 14.238 15.3159C14.7583 15.1401 15.3251 15.4139 15.5035 15.9271C15.8312 16.8697 17.0255 17.9143 18.4868 18.1587C19.1853 18.2754 19.9135 18.2014 20.6074 17.8603C21.3012 17.5192 22.0239 16.8798 22.6559 15.7659Z" fill="#292C28"/>
<path d="M15.059 10.3509C15.8841 10.3509 16.5531 11.0107 16.5531 11.8246C16.5531 12.6385 15.8841 13.2982 15.059 13.2982C14.2339 13.2982 13.5648 12.6384 13.5648 11.8246C13.5648 11.0107 14.2339 10.351 15.059 10.3509Z" fill="#292C28"/>
<path d="M23.0275 10.3509C23.8527 10.3509 24.5216 11.0107 24.5216 11.8246C24.5216 12.6385 23.8527 13.2982 23.0275 13.2982C22.2024 13.2982 21.5334 12.6384 21.5334 11.8246C21.5334 11.0107 22.2024 10.351 23.0275 10.3509Z" fill="#292C28"/>
<path fill-rule="evenodd" clip-rule="evenodd" d="M17.5491 2C21.0346 2 24.1648 3.1466 26.4262 5.36472C28.6911 7.5863 30 10.7995 30 14.7719C30 16.7897 29.521 19.9697 27.505 22.6709C26.7008 23.7483 25.6671 24.7266 24.3582 25.5204C24.4639 25.8489 24.5216 26.1984 24.5216 26.5614C24.5216 28.4605 22.9608 30 21.0354 30C19.4346 29.9999 18.0868 28.9355 17.6775 27.4853C17.1574 27.5232 16.6168 27.5439 16.055 27.5439C15.4906 27.5439 14.9485 27.5292 14.4277 27.5016C14.0128 28.9435 12.6694 30 11.0747 30C9.14935 29.9999 7.58843 28.4604 7.58843 26.5614C7.58843 26.3733 7.6037 26.1887 7.63317 26.0088C7.21378 25.8181 6.82028 25.6161 6.45326 25.3995C4.27903 24.1163 3.07139 22.4677 2.26081 21.0696C1.82938 20.3253 1.9684 19.527 2.42034 18.9656C2.84231 18.4417 3.51149 18.1369 4.20529 18.1203C4.21788 18.12 4.2282 18.1181 4.23642 18.1175C4.25589 18.0875 4.28948 18.0265 4.32785 17.915C4.491 17.4409 4.60022 16.515 4.60022 14.7719C4.60022 11.8641 5.59697 8.68385 7.72558 6.21478C9.87562 3.721 13.1425 2.00004 17.5491 2ZM17.5491 3.96491C13.7205 3.96495 11.0105 5.43701 9.24303 7.48698C7.4543 9.56172 6.59236 12.2764 6.59236 14.7719C6.59236 16.5019 6.49539 17.7299 6.21397 18.5473C6.06658 18.9753 5.8396 19.3804 5.46594 19.6737C5.0781 19.9779 4.64303 20.076 4.25295 20.0853C4.18138 20.087 4.11757 20.1038 4.06716 20.1275C4.05006 20.1355 4.03617 20.1446 4.02436 20.1524C4.73374 21.364 5.72566 22.6805 7.47656 23.7138C7.78969 23.8986 8.13055 24.0747 8.50084 24.2415C9.13826 23.5538 10.0556 23.1229 11.0747 23.1228C12.6361 23.1228 13.9575 24.1354 14.4014 25.531C14.9248 25.5614 15.4755 25.5789 16.055 25.5789C16.6363 25.5789 17.189 25.5542 17.7145 25.5108C20.6074 25.3995 21.5 25 23.2366 23.8942C24.3789 23.2158 25.2439 22.3864 25.9009 21.5062C27.5769 19.2606 28.0079 16.5459 28.0079 14.7719C28.0079 11.2363 26.8528 8.55395 25.0216 6.75781C23.1869 4.95832 20.5888 3.96491 17.5491 3.96491Z" fill="#292C28"/>
</svg>
