<svg width="32" height="32" viewBox="0 0 32 32" fill="none" xmlns="http://www.w3.org/2000/svg">
<path d="M16 3C13.7556 2.99951 11.5493 3.58011 9.59582 4.68529C7.64236 5.79046 6.00831 7.38256 4.85271 9.30662C3.69712 11.2307 3.05935 13.4212 3.00148 15.6648C2.94362 17.9085 3.46762 20.1289 4.5225 22.11L3.10375 26.3662C2.98623 26.7186 2.96918 27.0968 3.0545 27.4583C3.13982 27.8199 3.32414 28.1505 3.58681 28.4132C3.84948 28.6759 4.18012 28.8602 4.54166 28.9455C4.9032 29.0308 5.28136 29.0138 5.63375 28.8963L9.89 27.4775C11.6335 28.4048 13.5653 28.9228 15.5388 28.992C17.5123 29.0613 19.4757 28.68 21.2798 27.8772C23.084 27.0743 24.6816 25.871 25.9513 24.3586C27.221 22.8462 28.1294 21.0644 28.6077 19.1484C29.0859 17.2325 29.1214 15.2328 28.7114 13.301C28.3014 11.3693 27.4568 9.55642 26.2415 7.9999C25.0263 6.44337 23.4724 5.18415 21.6979 4.31782C19.9233 3.45149 17.9747 3.00081 16 3ZM16 27C14.0662 27.0013 12.1664 26.4921 10.4925 25.5238C10.3699 25.4527 10.2337 25.4085 10.0928 25.394C9.95182 25.3796 9.80942 25.3953 9.675 25.44L5 27L6.55875 22.325C6.60368 22.1907 6.61956 22.0483 6.60534 21.9074C6.59112 21.7665 6.54712 21.6301 6.47625 21.5075C5.26371 19.4111 4.77689 16.9732 5.09129 14.572C5.40569 12.1707 6.50374 9.94027 8.21511 8.22674C9.92648 6.51321 12.1555 5.41234 14.5564 5.0949C16.9572 4.77747 19.3958 5.26122 21.4937 6.47111C23.5916 7.68099 25.2315 9.54939 26.1592 11.7864C27.0869 14.0235 27.2503 16.5042 26.6243 18.8436C25.9982 21.1831 24.6176 23.2505 22.6967 24.7253C20.7757 26.2 18.4218 26.9996 16 27Z" fill="#292C28"/>
<path d="M22.6589 19.4053C22.54 20.3087 22.0964 21.1379 21.4108 21.738C20.7253 22.3382 19.8447 22.6683 18.9335 22.6667C13.6401 22.6667 9.33334 18.36 9.33334 13.0666C9.33171 12.1554 9.6618 11.2748 10.262 10.5893C10.8622 9.90372 11.6914 9.46007 12.5947 9.3412C12.8232 9.31331 13.0545 9.36004 13.2542 9.47443C13.4539 9.58881 13.6112 9.76471 13.7027 9.97587L15.1108 13.1192V13.1272C15.1808 13.2889 15.2098 13.4653 15.195 13.6409C15.1802 13.8164 15.1222 13.9856 15.0261 14.1332C15.0141 14.1512 15.0014 14.1679 14.9881 14.1846L13.6001 15.8299C14.0994 16.8446 15.1608 17.8966 16.1888 18.3973L17.8115 17.0166C17.8274 17.0032 17.8441 16.9907 17.8615 16.9793C18.009 16.8809 18.1788 16.8208 18.3553 16.8045C18.5319 16.7882 18.7098 16.8162 18.8728 16.8859L18.8815 16.8899L22.0222 18.2973C22.2338 18.3885 22.4101 18.5457 22.5249 18.7454C22.6396 18.9451 22.6866 19.1766 22.6589 19.4053Z" fill="#292C28"/>
</svg>
