<svg width="32" height="32" viewBox="0 0 32 32" fill="none" xmlns="http://www.w3.org/2000/svg">
<path d="M26.74 26.3275C26.8302 26.4244 26.9002 26.5382 26.9461 26.6623C26.9919 26.7864 27.0127 26.9184 27.0072 27.0506C27.0017 27.1829 26.97 27.3127 26.9139 27.4325C26.8578 27.5524 26.7785 27.66 26.6806 27.7489C26.5827 27.8379 26.4681 27.9066 26.3434 27.951C26.2187 27.9954 26.0865 28.0146 25.9543 28.0075C25.8222 28.0003 25.6928 27.9671 25.5736 27.9096C25.4544 27.8521 25.3478 27.7715 25.26 27.6725L18.76 20.5288C17.5845 20.0624 16.3102 19.9008 15.0556 20.059C13.8009 20.2172 12.6066 20.6901 11.5838 21.4338C11.4778 21.5138 11.357 21.572 11.2283 21.6049C11.0996 21.6377 10.9657 21.6446 10.8344 21.6252C10.703 21.6057 10.5768 21.5603 10.4632 21.4916C10.3496 21.4228 10.2508 21.3321 10.1726 21.2248C10.0944 21.1175 10.0384 20.9956 10.0077 20.8664C9.97714 20.7372 9.97258 20.6032 9.99434 20.4722C10.0161 20.3412 10.0637 20.2158 10.1344 20.1034C10.2052 19.991 10.2976 19.8938 10.4063 19.8175C12.0293 18.6308 13.9893 17.9939 16 18C16.16 18 16.3188 18 16.4775 18.0125L13.1125 14.3113C11.1094 14.7507 9.23276 15.6407 7.625 16.9138C7.5219 16.9959 7.40358 17.0568 7.27686 17.093C7.15013 17.1292 7.0175 17.1401 6.88658 17.1248C6.75566 17.1096 6.62904 17.0687 6.514 17.0043C6.39896 16.94 6.29777 16.8536 6.21625 16.75C6.05143 16.5427 5.97558 16.2785 6.00534 16.0153C6.0351 15.7522 6.16805 15.5115 6.375 15.3463C7.92488 14.1204 9.69444 13.2014 11.5888 12.6388L8.67125 9.42502C6.85043 10.1646 5.15236 11.1761 3.635 12.425C3.53323 12.5084 3.41602 12.5709 3.29008 12.609C3.16415 12.6471 3.03194 12.66 2.90101 12.647C2.77008 12.634 2.64299 12.5954 2.527 12.5333C2.41101 12.4712 2.30839 12.3868 2.225 12.285C2.14161 12.1832 2.07908 12.066 2.04099 11.9401C2.0029 11.8142 1.98998 11.682 2.00298 11.551C2.02924 11.2866 2.15946 11.0434 2.365 10.875C3.85098 9.65514 5.49399 8.64025 7.25 7.85752L5.26 5.67252C5.16983 5.57567 5.09979 5.46187 5.05392 5.33775C5.00806 5.21362 4.98728 5.08162 4.99281 4.94941C4.99833 4.81719 5.03004 4.68739 5.0861 4.56752C5.14216 4.44765 5.22146 4.3401 5.31939 4.2511C5.41732 4.1621 5.53194 4.09342 5.65661 4.04905C5.78128 4.00467 5.91352 3.98549 6.04566 3.99259C6.1778 3.9997 6.30721 4.03297 6.4264 4.09046C6.54559 4.14795 6.65218 4.22853 6.74 4.32752L26.74 26.3275ZM16 24C15.7033 24 15.4133 24.088 15.1666 24.2528C14.92 24.4176 14.7277 24.6519 14.6142 24.926C14.5007 25.2001 14.4709 25.5017 14.5288 25.7927C14.5867 26.0836 14.7296 26.3509 14.9393 26.5607C15.1491 26.7705 15.4164 26.9133 15.7074 26.9712C15.9983 27.0291 16.2999 26.9994 16.574 26.8858C16.8481 26.7723 17.0824 26.5801 17.2472 26.3334C17.412 26.0867 17.5 25.7967 17.5 25.5C17.5 25.1022 17.342 24.7207 17.0607 24.4394C16.7794 24.1581 16.3978 24 16 24ZM29.635 10.875C27.3674 9.01793 24.7446 7.64322 21.9273 6.83507C19.1099 6.02691 16.1572 5.80231 13.25 6.17502C13.1174 6.18856 12.9888 6.22848 12.8718 6.29243C12.7549 6.35638 12.6519 6.44307 12.5689 6.54741C12.4859 6.65175 12.4246 6.77163 12.3886 6.89999C12.3527 7.02836 12.3427 7.16262 12.3594 7.29489C12.3761 7.42715 12.419 7.55475 12.4857 7.67018C12.5524 7.7856 12.6415 7.88653 12.7478 7.96702C12.8541 8.04751 12.9753 8.10593 13.1045 8.13886C13.2337 8.17179 13.3682 8.17856 13.5 8.15877C14.3291 8.05312 15.1642 8.00009 16 8.00002C20.5084 8.00249 24.8771 9.56458 28.365 12.4213C28.57 12.5897 28.8336 12.6697 29.0977 12.6438C29.3617 12.6179 29.6047 12.4882 29.7731 12.2831C29.9415 12.0781 30.0216 11.8146 29.9957 11.5505C29.9698 11.2864 29.84 11.0434 29.635 10.875ZM24.375 16.9138C24.4779 16.9954 24.5959 17.0559 24.7222 17.0919C24.8485 17.1279 24.9807 17.1386 25.1112 17.1236C25.2416 17.1085 25.3679 17.0678 25.4826 17.0039C25.5974 16.9401 25.6984 16.8542 25.78 16.7513C25.8616 16.6484 25.9221 16.5304 25.9581 16.4041C25.9941 16.2777 26.0049 16.1456 25.9898 16.0151C25.9747 15.8846 25.934 15.7584 25.8702 15.6437C25.8063 15.5289 25.7204 15.4278 25.6175 15.3463C23.7262 13.8495 21.5123 12.8138 19.1513 12.3213C19.0213 12.2914 18.8867 12.2878 18.7553 12.3107C18.624 12.3336 18.4985 12.3826 18.3864 12.4547C18.2742 12.5268 18.1776 12.6206 18.1022 12.7306C18.0269 12.8406 17.9743 12.9645 17.9475 13.0952C17.9207 13.2258 17.9204 13.3604 17.9464 13.4912C17.9725 13.622 18.0244 13.7462 18.0992 13.8566C18.174 13.967 18.2701 14.0613 18.3818 14.1341C18.4936 14.2068 18.6188 14.2564 18.75 14.28C20.804 14.7093 22.7299 15.6111 24.375 16.9138Z" fill="#292C28"/>
</svg>
