<svg width="470" height="256" viewBox="0 0 470 256" fill="none" xmlns="http://www.w3.org/2000/svg">
<path d="M229.989 74.123H229.989C219.745 74.123 211.441 82.4194 211.441 92.6535V163.347C211.441 173.581 219.745 181.877 229.989 181.877H229.989C240.233 181.877 248.537 173.581 248.537 163.347V92.6535C248.537 82.4194 240.233 74.123 229.989 74.123Z" fill="url(#paint0_linear_2371_1881)"/>
<path d="M270.034 128.024C270.034 95.7949 293.718 74.1735 332.509 74.1735C370.893 74.1735 394.374 95.5902 394.374 128.024C394.374 160.251 371.506 181.874 332.509 181.874C293.513 181.874 270.034 160.252 270.034 128.024ZM332.51 165.556C356.808 165.556 370.69 149.849 370.69 128.024C370.69 105.995 356.808 90.4924 332.51 90.4924C308.212 90.4924 293.718 105.995 293.718 128.024C293.718 150.257 308.622 165.556 332.51 165.556Z" fill="white"/>
<path d="M229.989 111.249C240.233 111.249 248.537 102.953 248.537 92.7187C248.537 82.4846 240.233 74.1882 229.989 74.1882C219.746 74.1882 211.442 82.4846 211.442 92.7187C211.442 102.953 219.746 111.249 229.989 111.249Z" fill="white"/>
<path d="M141.16 74.1735C119.56 74.1735 105.99 82.1931 98.2847 91.5152V76.622H74.1927V179.631H98.2847V125.576C98.2847 104.159 112.577 91.7166 133.809 91.7166C153.206 91.7166 163.21 101.915 163.21 122.312V179.631H187.301V117.622C187.301 89.6762 171.376 74.1735 141.16 74.1735Z" fill="white"/>
<defs>
<linearGradient id="paint0_linear_2371_1881" x1="229.989" y1="74.123" x2="229.989" y2="181.877" gradientUnits="userSpaceOnUse">
<stop offset="0.2" stop-color="white" stop-opacity="0"/>
<stop offset="0.324" stop-color="white" stop-opacity="0.238"/>
<stop offset="0.458" stop-color="white" stop-opacity="0.467"/>
<stop offset="0.588" stop-color="white" stop-opacity="0.658"/>
<stop offset="0.71" stop-color="white" stop-opacity="0.806"/>
<stop offset="0.822" stop-color="white" stop-opacity="0.913"/>
<stop offset="0.921" stop-color="white" stop-opacity="0.977"/>
<stop offset="0.997" stop-color="white"/>
</linearGradient>
</defs>
</svg>
